<?xml version="1.0" encoding="utf-8"?>
<svg version="1.1" xmlns:xlink="http://www.w3.org/1999/xlink" width="83px" height="83px" xmlns="http://www.w3.org/2000/svg">
  <g transform="matrix(1 0 0 1 -166 -137 )">
    <path d="M 20.6689453125 5.56575520833333  C 27.0272352430556 1.8552517361111  33.9709201388889 0  41.5 0  C 49.0290798611111 0  55.9727647569445 1.8552517361111  62.3310546875 5.56575520833333  C 68.6893446180556 9.27625868055555  73.7237413194445 14.3106553819444  77.4342447916667 20.6689453125  C 81.1447482638889 27.0272352430555  83 33.9709201388889  83 41.5  C 83 49.0290798611111  81.1447482638889 55.9727647569444  77.4342447916667 62.3310546875  C 73.7237413194445 68.6893446180556  68.6893446180556 73.7237413194444  62.3310546875 77.4342447916667  C 55.9727647569445 81.1447482638889  49.0290798611111 83  41.5 83  C 33.9709201388889 83  27.0272352430556 81.1447482638889  20.6689453125 77.4342447916667  C 14.3106553819444 73.7237413194444  9.27625868055556 68.6893446180556  5.56575520833333 62.3310546875  C 1.85525173611111 55.9727647569444  0 49.0290798611111  0 41.5  C 0 33.9709201388889  1.85525173611111 27.0272352430555  5.56575520833333 20.6689453125  C 9.27625868055556 14.3106553819444  14.3106553819444 9.27625868055555  20.6689453125 5.56575520833333  Z M 47.9303385416667 68.6533203125  C 48.2545572916667 68.3110894097222  48.4166666666667 67.8878038194444  48 67.3834635416667  L 48 57.1165364583333  C 48.4166666666667 56.6121961805556  48.2545572916667 56.1889105902778  47.9303385416667 55.8466796875  C 47.6061197916667 55.5044487847222  47.2098524305556 55.3333333333333  46.7415364583333 55  L 36.3665364583333 55  C 35.8982204861111 55.3333333333333  35.4839409722222 55.5134548611111  35.1236979166667 55.8736979166667  C 34.7634548611111 56.2339409722222  34.5833333333333 56.6482204861111  35 57.1165364583333  L 35 67.3834635416667  C 34.5833333333333 67.8517795138889  34.7634548611111 68.2660590277778  35.1236979166667 68.6263020833333  C 35.4839409722222 68.9865451388889  35.8982204861111 69.1666666666667  36.3665364583333 69  L 46.7415364583333 69  C 47.2098524305556 69.1666666666667  47.6061197916667 68.9955512152778  47.9303385416667 68.6533203125  Z M 47.7412109375 49.7405598958333  C 48.0834418402778 49.4703776041667  48.2725694444444 49.1551649305556  48.30859375 48.794921875  L 49.28125 15.23828125  C 49.28125 14.8059895833333  49.1011284722222 14.4817708333333  48.7408854166667 14.265625  C 48.3806423611111 13.9774305555555  47.9483506944444 13.8333333333333  47.4440104166667 14  L 35.5559895833333 14  C 35.0516493055556 13.8333333333333  34.6193576388889 13.9774305555555  34.2591145833333 14.265625  C 33.8988715277778 14.4817708333333  33.71875 14.8059895833333  33.71875 15.23828125  L 34.6373697916667 48.794921875  C 34.6373697916667 49.1551649305556  34.8174913194445 49.4703776041667  35.177734375 49.7405598958333  C 35.5379774305556 50.0107421875  35.9702690972222 50.1458333333333  36.474609375 50.1458333333333  L 46.4713541666667 50.1458333333333  C 46.9756944444444 50.1458333333333  47.3989800347222 50.0107421875  47.7412109375 49.7405598958333  Z " fill-rule="nonzero" fill="#d7d7d7" stroke="none" transform="matrix(1 0 0 1 166 137 )" />
  </g>
</svg>