<?xml version="1.0" encoding="utf-8"?>
<svg version="1.1" xmlns:xlink="http://www.w3.org/1999/xlink" width="96px" height="32px" xmlns="http://www.w3.org/2000/svg">
  <g transform="matrix(1 0 0 1 -1171 -573 )">
    <path d="M 1171.5 577  A 3.5 3.5 0 0 1 1175 573.5 L 1263 573.5  A 3.5 3.5 0 0 1 1266.5 577 L 1266.5 601  A 3.5 3.5 0 0 1 1263 604.5 L 1175 604.5  A 3.5 3.5 0 0 1 1171.5 601 L 1171.5 577  Z " fill-rule="nonzero" fill="#0099ff" stroke="none" fill-opacity="0.0980392156862745" />
    <path d="M 1171.5 577  A 3.5 3.5 0 0 1 1175 573.5 L 1263 573.5  A 3.5 3.5 0 0 1 1266.5 577 L 1266.5 601  A 3.5 3.5 0 0 1 1263 604.5 L 1175 604.5  A 3.5 3.5 0 0 1 1171.5 601 L 1171.5 577  Z " stroke-width="1" stroke="#a7d2f9" fill="none" />
  </g>
</svg>