<?xml version="1.0" encoding="utf-8"?>
<svg version="1.1" xmlns:xlink="http://www.w3.org/1999/xlink" width="20px" height="18px" xmlns="http://www.w3.org/2000/svg">
  <g transform="matrix(1 0 0 1 -25 -159 )">
    <path d="M 7.14285714285714 1.5  L 7.14285714285714 3  L 12.8571428571429 3  L 12.8571428571429 1.5  L 7.14285714285714 1.5  Z M 12.5 10.5  L 20 10.5  L 20 16.125  C 20 16.640625  19.8251488095238 17.08203125  19.4754464285714 17.44921875  C 19.1257440476191 17.81640625  18.7053571428571 18  18.2142857142857 18  L 1.78571428571429 18  C 1.29464285714286 18  0.874255952380952 17.81640625  0.524553571428571 17.44921875  C 0.17485119047619 17.08203125  0 16.640625  0 16.125  L 0 10.5  L 7.5 10.5  L 7.5 12.375  C 7.5 12.578125  7.57068452380952 12.75390625  7.71205357142857 12.90234375  C 7.85342261904762 13.05078125  8.02083333333333 13.125  8.21428571428571 13.125  L 11.7857142857143 13.125  C 11.9791666666667 13.125  12.1465773809524 13.05078125  12.2879464285714 12.90234375  C 12.4293154761905 12.75390625  12.5 12.578125  12.5 12.375  L 12.5 10.5  Z M 8.57142857142857 10.5  L 11.4285714285714 10.5  L 11.4285714285714 12  L 8.57142857142857 12  L 8.57142857142857 10.5  Z M 19.4754464285714 3.55078125  C 19.8251488095238 3.91796875  20 4.359375  20 4.875  L 20 9.375  L 0 9.375  L 0 4.875  C 0 4.359375  0.17485119047619 3.91796875  0.524553571428571 3.55078125  C 0.874255952380952 3.18359375  1.29464285714286 3  1.78571428571429 3  L 5.71428571428571 3  L 5.71428571428571 1.125  C 5.71428571428571 0.812499999999999  5.81845238095238 0.546874999999998  6.02678571428571 0.328124999999999  C 6.23511904761905 0.109375000000001  6.48809523809524 0  6.78571428571429 0  L 13.2142857142857 0  C 13.5119047619048 0  13.764880952381 0.109375000000001  13.9732142857143 0.328124999999999  C 14.1815476190476 0.546874999999998  14.2857142857143 0.812499999999999  14.2857142857143 1.125  L 14.2857142857143 3  L 18.2142857142857 3  C 18.7053571428571 3  19.1257440476191 3.18359375  19.4754464285714 3.55078125  Z " fill-rule="nonzero" fill="#fbfbfb" stroke="none" transform="matrix(1 0 0 1 25 159 )" />
  </g>
</svg>