<?xml version="1.0" encoding="utf-8"?>
<svg version="1.1" xmlns:xlink="http://www.w3.org/1999/xlink" width="60px" height="60px" xmlns="http://www.w3.org/2000/svg">
  <g transform="matrix(1 0 0 1 -1275 -91 )">
    <path d="M 1305 92  C 1321.24 92  1334 104.76  1334 121  C 1334 137.24  1321.24 150  1305 150  C 1288.76 150  1276 137.24  1276 121  C 1276 104.76  1288.76 92  1305 92  Z " fill-rule="nonzero" fill="#ffffff" stroke="none" fill-opacity="0" />
    <path d="M 1305 92  C 1321.24 92  1334 104.76  1334 121  C 1334 137.24  1321.24 150  1305 150  C 1288.76 150  1276 137.24  1276 121  C 1276 104.76  1288.76 92  1305 92  Z " stroke-width="2" stroke="#797979" fill="none" />
  </g>
</svg>