<?xml version="1.0" encoding="utf-8"?>
<svg version="1.1" xmlns:xlink="http://www.w3.org/1999/xlink" width="54px" height="54px" xmlns="http://www.w3.org/2000/svg">
  <g transform="matrix(1 0 0 1 -11 -7 )">
    <path d="M 37.7276785714286 47.5061383928571  C 41.0424107142857 45.7483258928571  43.7645089285714 43.3627232142857  45.8939732142857 40.3493303571429  C 45.4520089285714 37.2354910714286  44.5731026785714 34.6489955357143  43.2572544642857 32.58984375  C 41.94140625 30.5306919642857  40.0881696428571 29.3404017857143  37.6975446428571 29.0189732142857  C 36.3515625 30.5055803571429  34.7494419642857 31.6657366071429  32.8911830357143 32.4994419642857  C 31.0329241071429 33.3331473214286  29.0691964285714 33.75  27 33.75  C 24.9308035714286 33.75  22.9670758928571 33.3331473214286  21.1088169642857 32.4994419642857  C 19.2505580357143 31.6657366071429  17.6484375 30.5055803571429  16.3024553571429 29.0189732142857  C 13.9118303571429 29.3404017857143  12.05859375 30.5306919642857  10.7427455357143 32.58984375  C 9.42689732142857 34.6489955357143  8.54799107142857 37.2354910714286  8.10602678571429 40.3493303571429  C 10.2354910714286 43.3627232142857  12.9575892857143 45.7483258928571  16.2723214285714 47.5061383928571  C 19.5870535714286 49.2639508928571  23.1629464285714 50.1428571428571  27 50.1428571428571  C 30.8370535714286 50.1428571428571  34.4129464285714 49.2639508928571  37.7276785714286 47.5061383928571  Z M 35.1813616071429 27.4670758928571  C 37.44140625 25.20703125  38.5714285714286 22.4799107142857  38.5714285714286 19.2857142857143  C 38.5714285714286 16.0915178571429  37.44140625 13.3643973214286  35.1813616071429 11.1043526785714  C 32.9213169642857 8.84430803571428  30.1941964285714 7.71428571428572  27 7.71428571428572  C 23.8058035714286 7.71428571428572  21.0786830357143 8.84430803571428  18.8186383928571 11.1043526785714  C 16.55859375 13.3643973214286  15.4285714285714 16.0915178571429  15.4285714285714 19.2857142857143  C 15.4285714285714 22.4799107142857  16.55859375 25.20703125  18.8186383928571 27.4670758928571  C 21.0786830357143 29.7271205357143  23.8058035714286 30.8571428571429  27 30.8571428571429  C 30.1941964285714 30.8571428571429  32.9213169642857 29.7271205357143  35.1813616071429 27.4670758928571  Z M 51.8604910714286 16.5133928571429  C 53.2868303571429 19.8482142857143  54 23.34375  54 27  C 54 30.65625  53.2868303571429 34.1467633928571  51.8604910714286 37.4715401785714  C 50.4341517857143 40.7963169642857  48.5206473214286 43.6690848214286  46.1199776785714 46.08984375  C 43.7193080357143 48.5106026785714  40.8515625 50.4341517857143  37.5167410714286 51.8604910714286  C 34.1819196428571 53.2868303571429  30.6763392857143 54  27 54  C 23.34375 54  19.8482142857143 53.2868303571429  16.5133928571429 51.8604910714286  C 13.1785714285714 50.4341517857143  10.3058035714286 48.515625  7.89508928571429 46.1049107142857  C 5.484375 43.6941964285714  3.56584821428571 40.8214285714286  2.13950892857143 37.4866071428571  C 0.713169642857143 34.1517857142857  0 30.65625  0 27  C 0 23.34375  0.713169642857143 19.8482142857143  2.13950892857143 16.5133928571429  C 3.56584821428571 13.1785714285714  5.484375 10.3058035714286  7.89508928571429 7.89508928571428  C 10.3058035714286 5.484375  13.1785714285714 3.56584821428571  16.5133928571429 2.13950892857143  C 19.8482142857143 0.713169642857143  23.34375 0  27 0  C 30.65625 0  34.1517857142857 0.713169642857143  37.4866071428571 2.13950892857143  C 40.8214285714286 3.56584821428571  43.6941964285714 5.484375  46.1049107142857 7.89508928571428  C 48.515625 10.3058035714286  50.4341517857143 13.1785714285714  51.8604910714286 16.5133928571429  Z " fill-rule="nonzero" fill="#cbcbcb" stroke="none" transform="matrix(1 0 0 1 11 7 )" />
  </g>
</svg>