<?xml version="1.0" encoding="utf-8"?>
<svg version="1.1" xmlns:xlink="http://www.w3.org/1999/xlink" width="8px" height="10px" xmlns="http://www.w3.org/2000/svg">
  <g transform="matrix(1 0 0 1 -314 -111 )">
    <path d="M 4.87244401168452 9.93252840909091  C 4.82310938007141 9.97750946969697  4.76468679000325 10  4.69717624148004 10  L 3.35735150925024 10  C 3.28984096072704 10  3.23141837065888 9.97869318181818  3.18208373904576 9.93607954545455  C 3.13274910743265 9.89346590909091  3.1080817916261 9.83901515151515  3.1080817916261 9.77272727272727  L 3.1080817916261 7.42897727272727  L 0.864654333008763 7.42897727272727  C 0.797143784485557 7.42897727272727  0.738721194417397 7.40767045454545  0.689386562804284 7.36505681818182  C 0.640051931191172 7.32244318181818  0.615384615384615 7.26799242424242  0.615384615384615 7.20170454545455  L 0.615384615384615 6.47017045454545  C 0.615384615384615 6.40861742424242  0.640051931191172 6.35535037878788  0.689386562804284 6.31036931818182  C 0.738721194417397 6.26538825757576  0.797143784485557 6.24289772727273  0.864654333008763 6.24289772727273  L 3.1080817916261 6.24289772727273  L 3.1080817916261 5.63920454545455  L 0.864654333008763 5.63920454545455  C 0.797143784485557 5.63920454545455  0.738721194417397 5.61789772727273  0.689386562804284 5.57528409090909  C 0.640051931191172 5.53267045454545  0.615384615384615 5.4782196969697  0.615384615384615 5.41193181818182  L 0.615384615384615 4.67329545454545  C 0.615384615384615 4.61174242424242  0.640051931191172 4.55847537878788  0.689386562804284 4.51349431818182  C 0.738721194417397 4.46851325757576  0.797143784485557 4.44602272727273  0.864654333008763 4.44602272727273  L 2.53164556962025 4.44602272727273  L 0.0311587147030185 0.340909090909091  C -0.0103862382343395 0.265151515151515  -0.0103862382343395 0.189393939393938  0.0311587147030185 0.113636363636364  C 0.083089905874716 0.0378787878787878  0.155793573515093 0  0.249269717624148 0  L 1.76046738072055 0  C 1.85913664394677 0  1.93443687114573 0.0426136363636365  1.98636806231743 0.127840909090909  L 3.66114897760467 3.14630681818182  C 3.7598182408309 3.32623106060606  3.90522557611165 3.62215909090909  4.09737098344693 4.03409090909091  C 4.14930217461863 3.92045454545455  4.22849724115547 3.7594696969697  4.33495618305745 3.55113636363636  C 4.44141512495943 3.34280303030303  4.51282051282051 3.19839015151515  4.5491723466407 3.11789772727273  L 6.03700097370983 0.134943181818182  C 6.07854592664719 0.0449810606060597  6.15384615384616 0  6.26290165530672 0  L 7.75073028237585 0  C 7.83901330736774 0  7.90912041544953 0.0378787878787878  7.96105160662123 0.113636363636364  C 8.00778967867575 0.179924242424242  8.01038623823434 0.253314393939393  7.96884128529698 0.333806818181818  L 5.53067185978578 4.44602272727273  L 7.20545277507303 4.44602272727273  C 7.27296332359624 4.44602272727273  7.33138591366439 4.46851325757576  7.38072054527751 4.51349431818182  C 7.43005517689062 4.55847537878788  7.45472249269718 4.61174242424242  7.45472249269718 4.67329545454545  L 7.45472249269718 5.41193181818182  C 7.45472249269718 5.4782196969697  7.43005517689062 5.53267045454545  7.38072054527751 5.57528409090909  C 7.33138591366439 5.61789772727273  7.27296332359624 5.63920454545455  7.20545277507303 5.63920454545455  L 4.94644595910419 5.63920454545455  L 4.94644595910419 6.24289772727273  L 7.20545277507303 6.24289772727273  C 7.27296332359624 6.24289772727273  7.33138591366439 6.26538825757576  7.38072054527751 6.31036931818182  C 7.43005517689062 6.35535037878788  7.45472249269718 6.40861742424242  7.45472249269718 6.47017045454545  L 7.45472249269718 7.20170454545455  C 7.45472249269718 7.26799242424242  7.43005517689062 7.32244318181818  7.38072054527751 7.36505681818182  C 7.33138591366439 7.40767045454545  7.27296332359624 7.42897727272727  7.20545277507303 7.42897727272727  L 4.94644595910419 7.42897727272727  L 4.94644595910419 9.77272727272727  C 4.94644595910419 9.8342803030303  4.92177864329763 9.88754734848485  4.87244401168452 9.93252840909091  Z " fill-rule="nonzero" fill="#000000" stroke="none" transform="matrix(1 0 0 1 314 111 )" />
  </g>
</svg>