<?xml version="1.0" encoding="utf-8"?>
<svg version="1.1" xmlns:xlink="http://www.w3.org/1999/xlink" width="30px" height="30px" xmlns="http://www.w3.org/2000/svg">
  <g transform="matrix(1 0 0 1 -31 -136 )">
    <path d="M 46 137  C 53.84 137  60 143.16  60 151  C 60 158.84  53.84 165  46 165  C 38.16 165  32 158.84  32 151  C 32 143.16  38.16 137  46 137  Z " fill-rule="nonzero" fill="#0079fe" stroke="none" />
    <path d="M 46 137  C 53.84 137  60 143.16  60 151  C 60 158.84  53.84 165  46 165  C 38.16 165  32 158.84  32 151  C 32 143.16  38.16 137  46 137  Z " stroke-width="2" stroke="#0079fe" fill="none" />
  </g>
</svg>