<?xml version="1.0" encoding="utf-8"?>
<svg version="1.1" xmlns:xlink="http://www.w3.org/1999/xlink" width="30px" height="30px" xmlns="http://www.w3.org/2000/svg">
  <g transform="matrix(1 0 0 1 -135 -136 )">
    <path d="M 150 137  C 157.84 137  164 143.16  164 151  C 164 158.84  157.84 165  150 165  C 142.16 165  136 158.84  136 151  C 136 143.16  142.16 137  150 137  Z " fill-rule="nonzero" fill="#ffffff" stroke="none" />
    <path d="M 150 137  C 157.84 137  164 143.16  164 151  C 164 158.84  157.84 165  150 165  C 142.16 165  136 158.84  136 151  C 136 143.16  142.16 137  150 137  Z " stroke-width="2" stroke="#e4e4e4" fill="none" />
  </g>
</svg>