<?xml version="1.0" encoding="utf-8"?>
<svg version="1.1" xmlns:xlink="http://www.w3.org/1999/xlink" width="20px" height="20px" viewBox="464 590.5  20 20" xmlns="http://www.w3.org/2000/svg">
  <path d="M 474 590.5  C 479.6 590.5  484 594.9  484 600.5  C 484 606.1  479.6 610.5  474 610.5  C 468.4 610.5  464 606.1  464 600.5  C 464 594.9  468.4 590.5  474 590.5  Z " fill-rule="nonzero" fill="#ffffff" stroke="none" />
  <path d="M 474 591  C 479.32 591  483.5 595.18  483.5 600.5  C 483.5 605.82  479.32 610  474 610  C 468.68 610  464.5 605.82  464.5 600.5  C 464.5 595.18  468.68 591  474 591  Z " stroke-width="1" stroke="#797979" fill="none" />
  <path d="M 474 605.5  C 471.2 605.5  469 603.3  469 600.5  C 469 597.7  471.2 595.5  474 595.5  C 476.8 595.5  479 597.7  479 600.5  C 479 603.3  476.8 605.5  474 605.5  " fill-rule="nonzero" fill="#797979" stroke="none" />
</svg>