<?xml version="1.0" encoding="utf-8"?>
<svg version="1.1" xmlns:xlink="http://www.w3.org/1999/xlink" width="20px" height="20px" viewBox="403 11.5  20 20" xmlns="http://www.w3.org/2000/svg">
  <path d="M 413 11.5  C 418.6 11.5  423 15.9  423 21.5  C 423 27.1  418.6 31.5  413 31.5  C 407.4 31.5  403 27.1  403 21.5  C 403 15.9  407.4 11.5  413 11.5  Z " fill-rule="nonzero" fill="#ffffff" stroke="none" />
  <path d="M 413 12  C 418.32 12  422.5 16.18  422.5 21.5  C 422.5 26.82  418.32 31  413 31  C 407.68 31  403.5 26.82  403.5 21.5  C 403.5 16.18  407.68 12  413 12  Z " stroke-width="1" stroke="#797979" fill="none" />
  <path d="M 413 26.5  C 410.2 26.5  408 24.3  408 21.5  C 408 18.7  410.2 16.5  413 16.5  C 415.8 16.5  418 18.7  418 21.5  C 418 24.3  415.8 26.5  413 26.5  " fill-rule="nonzero" fill="#797979" stroke="none" />
</svg>