<?xml version="1.0" encoding="utf-8"?>
<svg version="1.1" xmlns:xlink="http://www.w3.org/1999/xlink" width="20px" height="20px" viewBox="602 11.5  20 20" xmlns="http://www.w3.org/2000/svg">
  <path d="M 612 11.5  C 617.6 11.5  622 15.9  622 21.5  C 622 27.1  617.6 31.5  612 31.5  C 606.4 31.5  602 27.1  602 21.5  C 602 15.9  606.4 11.5  612 11.5  Z " fill-rule="nonzero" fill="#ffffff" stroke="none" />
  <path d="M 612 12  C 617.32 12  621.5 16.18  621.5 21.5  C 621.5 26.82  617.32 31  612 31  C 606.68 31  602.5 26.82  602.5 21.5  C 602.5 16.18  606.68 12  612 12  Z " stroke-width="1" stroke="#797979" fill="none" />
  <path d="M 612 26.5  C 609.2 26.5  607 24.3  607 21.5  C 607 18.7  609.2 16.5  612 16.5  C 614.8 16.5  617 18.7  617 21.5  C 617 24.3  614.8 26.5  612 26.5  " fill-rule="nonzero" fill="#797979" stroke="none" />
</svg>