<?xml version="1.0" encoding="utf-8"?>
<svg version="1.1" xmlns:xlink="http://www.w3.org/1999/xlink" width="20px" height="20px" viewBox="52 8.5  20 20" xmlns="http://www.w3.org/2000/svg">
  <path d="M 62 8.5  C 67.6 8.5  72 12.9  72 18.5  C 72 24.1  67.6 28.5  62 28.5  C 56.4 28.5  52 24.1  52 18.5  C 52 12.9  56.4 8.5  62 8.5  Z " fill-rule="nonzero" fill="#ffffff" stroke="none" />
  <path d="M 62 9  C 67.32 9  71.5 13.18  71.5 18.5  C 71.5 23.82  67.32 28  62 28  C 56.68 28  52.5 23.82  52.5 18.5  C 52.5 13.18  56.68 9  62 9  Z " stroke-width="1" stroke="#797979" fill="none" />
  <path d="M 62 23.5  C 59.2 23.5  57 21.3  57 18.5  C 57 15.7  59.2 13.5  62 13.5  C 64.8 13.5  67 15.7  67 18.5  C 67 21.3  64.8 23.5  62 23.5  " fill-rule="nonzero" fill="#797979" stroke="none" />
</svg>