<?xml version="1.0" encoding="utf-8"?>
<svg version="1.1" xmlns:xlink="http://www.w3.org/1999/xlink" width="93px" height="32px" xmlns="http://www.w3.org/2000/svg">
  <g transform="matrix(1 0 0 1 -1154 -458 )">
    <path d="M 1154.5 462  A 3.5 3.5 0 0 1 1158 458.5 L 1243 458.5  A 3.5 3.5 0 0 1 1246.5 462 L 1246.5 486  A 3.5 3.5 0 0 1 1243 489.5 L 1158 489.5  A 3.5 3.5 0 0 1 1154.5 486 L 1154.5 462  Z " fill-rule="nonzero" fill="#0099ff" stroke="none" fill-opacity="0.0980392156862745" />
    <path d="M 1154.5 462  A 3.5 3.5 0 0 1 1158 458.5 L 1243 458.5  A 3.5 3.5 0 0 1 1246.5 462 L 1246.5 486  A 3.5 3.5 0 0 1 1243 489.5 L 1158 489.5  A 3.5 3.5 0 0 1 1154.5 486 L 1154.5 462  Z " stroke-width="1" stroke="#a7d2f9" fill="none" />
  </g>
</svg>