<?xml version="1.0" encoding="utf-8"?>
<svg version="1.1" xmlns:xlink="http://www.w3.org/1999/xlink" width="93px" height="32px" xmlns="http://www.w3.org/2000/svg">
  <g transform="matrix(1 0 0 1 -1154 -458 )">
    <path d="M 1155 462  A 3 3 0 0 1 1158 459 L 1243 459  A 3 3 0 0 1 1246 462 L 1246 486  A 3 3 0 0 1 1243 489 L 1158 489  A 3 3 0 0 1 1155 486 L 1155 462  Z " fill-rule="nonzero" fill="#e6a23c" stroke="none" fill-opacity="0.0980392156862745" />
    <path d="M 1154.5 462  A 3.5 3.5 0 0 1 1158 458.5 L 1243 458.5  A 3.5 3.5 0 0 1 1246.5 462 L 1246.5 486  A 3.5 3.5 0 0 1 1243 489.5 L 1158 489.5  A 3.5 3.5 0 0 1 1154.5 486 L 1154.5 462  Z " stroke-width="1" stroke="#e6a23c" fill="none" stroke-opacity="0.2" />
  </g>
</svg>