<?xml version="1.0" encoding="utf-8"?>
<svg version="1.1" xmlns:xlink="http://www.w3.org/1999/xlink" width="93px" height="32px" xmlns="http://www.w3.org/2000/svg">
  <g transform="matrix(1 0 0 1 -1154 -762 )">
    <path d="M 1155 766  A 3 3 0 0 1 1158 763 L 1243 763  A 3 3 0 0 1 1246 766 L 1246 790  A 3 3 0 0 1 1243 793 L 1158 793  A 3 3 0 0 1 1155 790 L 1155 766  Z " fill-rule="nonzero" fill="#f56c6c" stroke="none" fill-opacity="0.0980392156862745" />
    <path d="M 1154.5 766  A 3.5 3.5 0 0 1 1158 762.5 L 1243 762.5  A 3.5 3.5 0 0 1 1246.5 766 L 1246.5 790  A 3.5 3.5 0 0 1 1243 793.5 L 1158 793.5  A 3.5 3.5 0 0 1 1154.5 790 L 1154.5 766  Z " stroke-width="1" stroke="#f56c6c" fill="none" stroke-opacity="0.2" />
  </g>
</svg>