<?xml version="1.0" encoding="utf-8"?>
<svg version="1.1" xmlns:xlink="http://www.w3.org/1999/xlink" width="22px" height="20px" xmlns="http://www.w3.org/2000/svg">
  <g transform="matrix(1 0 0 1 -54 -553 )">
    <path d="M 17.1752232142857 11.7838541666667  C 17.2488839285714 11.8619791666667  17.2857142857143 11.9618055555556  17.2857142857143 12.0833333333333  L 17.2857142857143 16.25  C 17.2857142857143 17.2829861111111  16.9399181547619 18.1662326388889  16.2483258928571 18.8997395833333  C 15.5567336309524 19.6332465277778  14.7239583333333 20  13.75 20  L 3.53571428571429 20  C 2.56175595238095 20  1.7289806547619 19.6332465277778  1.03738839285714 18.8997395833333  C 0.345796130952381 18.1662326388889  0 17.2829861111111  0 16.25  L 0 5.41666666666667  C 0 4.38368055555555  0.345796130952381 3.50043402777778  1.03738839285714 2.76692708333333  C 1.7289806547619 2.03342013888889  2.56175595238095 1.66666666666667  3.53571428571429 1.66666666666667  L 12.1785714285714 1.66666666666667  C 12.2931547619048 1.66666666666667  12.3872767857143 1.70572916666667  12.4609375 1.78385416666667  C 12.5345982142857 1.86197916666667  12.5714285714286 1.96180555555555  12.5714285714286 2.08333333333333  L 12.5714285714286 2.91666666666667  C 12.5714285714286 3.03819444444444  12.5345982142857 3.13802083333333  12.4609375 3.21614583333333  C 12.3872767857143 3.29427083333333  12.2931547619048 3.33333333333333  12.1785714285714 3.33333333333333  L 3.53571428571429 3.33333333333333  C 2.99553571428571 3.33333333333333  2.53311011904762 3.53732638888889  2.1484375 3.9453125  C 1.76376488095238 4.35329861111111  1.57142857142857 4.84375  2 5.41666666666667  L 2 16.25  C 1.57142857142857 16.8229166666667  1.76376488095238 17.3133680555556  2.1484375 17.7213541666667  C 2.53311011904762 18.1293402777778  2.99553571428571 18.3333333333333  3.53571428571429 18  L 13.75 18  C 14.2901785714286 18.3333333333333  14.7526041666667 18.1293402777778  15.1372767857143 17.7213541666667  C 15.5219494047619 17.3133680555556  15.7142857142857 16.8229166666667  15.7142857142857 16.25  L 15.7142857142857 12.0833333333333  C 15.7142857142857 11.9618055555556  15.7511160714286 11.8619791666667  15.8247767857143 11.7838541666667  C 15.8984375 11.7057291666667  15.9925595238095 11.6666666666667  16.1071428571429 11.6666666666667  L 16.8928571428571 11.6666666666667  C 17.0074404761905 11.6666666666667  17.1015625 11.7057291666667  17.1752232142857 11.7838541666667  Z M 21.7667410714286 0.247395833333333  C 21.9222470238095 0.412326388888886  22 0.607638888888886  22 0.833333333333333  L 22 7.5  C 22 7.72569444444444  21.9222470238095 7.92100694444444  21.7667410714286 8.0859375  C 21.6112351190476 8.25086805555556  21.4270833333333 8.33333333333333  21.2142857142857 8.33333333333333  C 21.0014880952381 8.33333333333333  20.8173363095238 8.25086805555556  20.6618303571429 8.0859375  L 18.5011160714286 5.79427083333333  L 10.4966517857143 14.2838541666667  C 10.414806547619 14.3706597222222  10.3206845238095 14.4140625  10.2142857142857 14.4140625  C 10.1078869047619 14.4140625  10.0137648809524 14.3706597222222  9.93191964285714 14.2838541666667  L 8.53236607142857 12.7994791666667  C 8.45052083333333 12.7126736111111  8.40959821428572 12.6128472222222  8.40959821428572 12.5  C 8.40959821428572 12.3871527777778  8.45052083333333 12.2873263888889  8.53236607142857 12.2005208333333  L 16.5368303571429 3.7109375  L 14.3761160714286 1.41927083333333  C 14.2206101190476 1.25434027777778  14.1428571428571 1.05902777777778  14.1428571428571 0.833333333333333  C 14.1428571428571 0.607638888888886  14.2206101190476 0.412326388888886  14.3761160714286 0.247395833333333  C 14.5316220238095 0.082465277777779  14.7157738095238 0  14.9285714285714 0  L 21.2142857142857 0  C 21.4270833333333 0  21.6112351190476 0.082465277777779  21.7667410714286 0.247395833333333  Z " fill-rule="nonzero" fill="#0079fe" stroke="none" transform="matrix(1 0 0 1 54 553 )" />
  </g>
</svg>