<?xml version="1.0" encoding="utf-8"?>
<svg version="1.1" xmlns:xlink="http://www.w3.org/1999/xlink" width="23px" height="22px" xmlns="http://www.w3.org/2000/svg">
  <g transform="matrix(1 0 0 1 -223 -552 )">
    <path d="M 17.9559151785714 12.9622395833333  C 18.0329241071429 13.0481770833333  18.0714285714286 13.1579861111111  18.0714285714286 13.2916666666667  L 18.0714285714286 17.875  C 18.0714285714286 19.0112847222222  17.7099144345238 19.9828559027778  16.9868861607143 20.7897135416667  C 16.2638578869048 21.5965711805556  15.3932291666667 22  14.375 22  L 3.69642857142857 22  C 2.67819940476191 22  1.80757068452381 21.5965711805556  1.08454241071429 20.7897135416667  C 0.361514136904762 19.9828559027778  0 19.0112847222222  0 17.875  L 0 5.95833333333333  C 0 4.82204861111111  0.361514136904762 3.85047743055555  1.08454241071429 3.04361979166667  C 1.80757068452381 2.23676215277778  2.67819940476191 1.83333333333333  3.69642857142857 1.83333333333333  L 12.7321428571429 1.83333333333333  C 12.8519345238095 1.83333333333333  12.9503348214286 1.87630208333333  13.02734375 1.96223958333333  C 13.1043526785714 2.04817708333333  13.1428571428571 2.15798611111111  13.1428571428571 2.29166666666667  L 13.1428571428571 3.20833333333333  C 13.1428571428571 3.34201388888889  13.1043526785714 3.45182291666667  13.02734375 3.53776041666667  C 12.9503348214286 3.62369791666667  12.8519345238095 3.66666666666667  12.7321428571429 3.66666666666667  L 3.69642857142857 3.66666666666667  C 3.13169642857143 3.66666666666667  2.64825148809524 3.89105902777778  2.24609375 4.33984375  C 1.84393601190476 4.78862847222222  1.64285714285714 5.328125  2 5.95833333333333  L 2 17.875  C 1.64285714285714 18.5052083333333  1.84393601190476 19.0447048611111  2.24609375 19.4934895833333  C 2.64825148809524 19.9422743055556  3.13169642857143 20.1666666666667  3.69642857142857 20  L 14.375 20  C 14.9397321428571 20.1666666666667  15.4231770833333 19.9422743055556  15.8253348214286 19.4934895833333  C 16.2274925595238 19.0447048611111  16.4285714285714 18.5052083333333  16.4285714285714 17.875  L 16.4285714285714 13.2916666666667  C 16.4285714285714 13.1579861111111  16.4670758928571 13.0481770833333  16.5440848214286 12.9622395833333  C 16.62109375 12.8763020833333  16.719494047619 12.8333333333333  16.8392857142857 12.8333333333333  L 17.6607142857143 12.8333333333333  C 17.780505952381 12.8333333333333  17.87890625 12.8763020833333  17.9559151785714 12.9622395833333  Z M 22.7561383928571 0.272135416666666  C 22.918712797619 0.453559027777775  23 0.668402777777775  23 0.916666666666666  L 23 8.25  C 23 8.49826388888889  22.918712797619 8.71310763888889  22.7561383928571 8.89453125  C 22.5935639880952 9.07595486111111  22.4010416666667 9.16666666666667  22.1785714285714 9.16666666666667  C 21.9561011904762 9.16666666666667  21.7635788690476 9.07595486111111  21.6010044642857 8.89453125  L 19.3420758928571 6.37369791666667  L 10.9737723214286 15.7122395833333  C 10.8882068452381 15.8077256944444  10.789806547619 15.85546875  10.6785714285714 15.85546875  C 10.5673363095238 15.85546875  10.4689360119048 15.8077256944444  10.3833705357143 15.7122395833333  L 8.92020089285714 14.0794270833333  C 8.83463541666667 13.9839409722222  8.79185267857143 13.8741319444444  8.79185267857143 13.75  C 8.79185267857143 13.6258680555556  8.83463541666667 13.5160590277778  8.92020089285714 13.4205729166667  L 17.2885044642857 4.08203125  L 15.0295758928571 1.56119791666667  C 14.8670014880952 1.37977430555555  14.7857142857143 1.16493055555555  14.7857142857143 0.916666666666666  C 14.7857142857143 0.668402777777775  14.8670014880952 0.453559027777775  15.0295758928571 0.272135416666666  C 15.192150297619 0.0907118055555569  15.3846726190476 0  15.6071428571429 0  L 22.1785714285714 0  C 22.4010416666667 0  22.5935639880952 0.0907118055555569  22.7561383928571 0.272135416666666  Z " fill-rule="nonzero" fill="#0079fe" stroke="none" transform="matrix(1 0 0 1 223 552 )" />
  </g>
</svg>