<?xml version="1.0" encoding="utf-8"?>
<svg version="1.1" xmlns:xlink="http://www.w3.org/1999/xlink" width="100px" height="100px" xmlns="http://www.w3.org/2000/svg">
  <g transform="matrix(1 0 0 1 -155 -111 )">
    <path d="M 66.1783854166666 11.6536458333333  C 61.03515625 9.44010416666666  55.6423611111111 8.33333333333334  50 8.33333333333334  C 44.3576388888889 8.33333333333334  38.96484375 9.44010416666666  33.8216145833333 11.6536458333333  C 28.6783854166667 13.8671875  24.2513020833333 16.8294270833333  20.5403645833333 20.5403645833333  C 16.8294270833333 24.2513020833333  13.8671875 28.6783854166667  11.6536458333333 33.8216145833333  C 11.0805193151865 35.15329090491  10.5815892783504 36.5016978056057  10.1568557228251 37.8668352854206  C 8.94117412983059 41.7741613832271  8.33333333333331 45.8185496214202  8.33333333333331 50  C 8.33333333333331 55.6423611111111  9.44010416666669 61.03515625  11.6536458333333 66.1783854166667  C 13.8671875 71.3216145833333  16.8294270833333 75.7486979166667  20.5403645833333 79.4596354166667  C 24.2513020833333 83.1705729166667  28.6783854166667 86.1328125  33.8216145833333 88.3463541666667  C 38.96484375 90.5598958333333  44.3576388888889 91.6666666666667  50 91.6666666666667  C 55.6423611111111 91.6666666666667  61.03515625 90.5598958333333  66.1783854166666 88.3463541666667  C 71.3216145833334 86.1328125  75.7486979166666 83.1705729166667  79.4596354166666 79.4596354166667  C 83.1705729166666 75.7486979166667  86.1328125 71.3216145833333  88.3463541666666 66.1783854166667  C 90.5598958333334 61.03515625  91.6666666666666 55.6423611111111  91.6666666666666 50  C 91.6666666666666 44.3576388888889  90.5598958333334 38.96484375  88.3463541666666 33.8216145833333  C 86.1328125 28.6783854166667  83.1705729166666 24.2513020833333  79.4596354166666 20.5403645833333  C 75.7486979166666 16.8294270833333  71.3216145833334 13.8671875  66.1783854166666 11.6536458333333  Z M 93.2942708333334 24.90234375  C 97.7647569444445 32.5629340277778  100 40.9288194444444  100 50  C 100 59.0711805555556  97.7647569444445 67.4370659722222  93.2942708333334 75.09765625  C 88.8237847222222 82.7582465277778  82.7582465277778 88.8237847222222  75.09765625 93.2942708333333  C 67.4370659722222 97.7647569444445  59.0711805555556 100  50 100  C 40.9288194444445 100  32.5629340277778 97.7647569444445  24.90234375 93.2942708333333  C 17.2417534722222 88.8237847222222  11.1762152777778 82.7582465277778  6.70572916666669 75.09765625  C 2.23524305555554 67.4370659722222  0 59.0711805555556  0 50  C 0 40.9288194444444  2.23524305555554 32.5629340277778  6.70572916666669 24.90234375  C 11.1762152777778 17.2417534722222  17.2417534722222 11.1762152777778  24.90234375 6.70572916666666  C 32.5629340277778 2.23524305555554  40.9288194444445 0  50 0  C 59.0711805555556 0  67.4370659722222 2.23524305555554  75.09765625 6.70572916666666  C 82.7582465277778 11.1762152777778  88.8237847222222 17.2417534722222  93.2942708333334 24.90234375  Z " fill-rule="nonzero" fill="#f76a24" stroke="none" transform="matrix(1 0 0 1 155 111 )" />
  </g>
</svg>