<?xml version="1.0" encoding="utf-8"?>
<svg version="1.1" xmlns:xlink="http://www.w3.org/1999/xlink" width="15px" height="15px" xmlns="http://www.w3.org/2000/svg">
  <g transform="matrix(1 0 0 1 -60 -1036 )">
    <path d="M 67.5 1037  C 71.14 1037  74 1039.86  74 1043.5  C 74 1047.14  71.14 1050  67.5 1050  C 63.86 1050  61 1047.14  61 1043.5  C 61 1039.86  63.86 1037  67.5 1037  Z " fill-rule="nonzero" fill="#ffffff" stroke="none" />
    <path d="M 67.5 1037  C 71.14 1037  74 1039.86  74 1043.5  C 74 1047.14  71.14 1050  67.5 1050  C 63.86 1050  61 1047.14  61 1043.5  C 61 1039.86  63.86 1037  67.5 1037  Z " stroke-width="2" stroke="#0079fe" fill="none" />
  </g>
</svg>