<?xml version="1.0" encoding="utf-8"?>
<svg version="1.1" xmlns:xlink="http://www.w3.org/1999/xlink" width="91px" height="32px" xmlns="http://www.w3.org/2000/svg">
  <g transform="matrix(1 0 0 1 -1157 -529 )">
    <path d="M 1158 533  A 3 3 0 0 1 1161 530 L 1244 530  A 3 3 0 0 1 1247 533 L 1247 557  A 3 3 0 0 1 1244 560 L 1161 560  A 3 3 0 0 1 1158 557 L 1158 533  Z " fill-rule="nonzero" fill="#909399" stroke="none" fill-opacity="0.0980392156862745" />
    <path d="M 1157.5 533  A 3.5 3.5 0 0 1 1161 529.5 L 1244 529.5  A 3.5 3.5 0 0 1 1247.5 533 L 1247.5 557  A 3.5 3.5 0 0 1 1244 560.5 L 1161 560.5  A 3.5 3.5 0 0 1 1157.5 557 L 1157.5 533  Z " stroke-width="1" stroke="#909399" fill="none" stroke-opacity="0.2" />
  </g>
</svg>