<?xml version="1.0" encoding="utf-8"?>
<svg version="1.1" xmlns:xlink="http://www.w3.org/1999/xlink" width="971px" height="203px" xmlns="http://www.w3.org/2000/svg">
  <g transform="matrix(1 0 0 1 -582 -155 )">
    <path d="M 969.262917933131 201.438888888889  L 1.76899696048633 201.438888888889  C 1.76899696048633 201.438888888889  0.294832826747725 100.775555555556  0.294832826747725 101.224444444445  C 14.6238986556701 100.800271893613  53.5963908119099 98.7555555555555  83.5359675785208 98.7555555555555  C 134.886018237082 98.7555555555555  130.709219858156 130.177777777778  172.968591691996 130.177777777778  C 215.227963525836 130.177777777778  199.789944258367 72.0528992723842  264.366767983789 72.5703703703702  C 311.048632218845 72.9444444444444  317.847690671245 92.5627644687583  345.937183383992 92.7703703703702  C 396.550151975684 93.1444444444444  392.127659574468 0.374074074073734  442.249240121581 0.748148148147978  C 492.370820668693 1.12222222222222  466.366650452285 97.1885970044626  523.819655521783 103.244444444444  C 555.759878419453 106.611111111111  568.781661600811 102.683333333333  611.28672745694 105.488888888889  C 653.79179331307 108.294444444444  653.054711246201 164.966666666667  702.684903748733 165.340740740741  C 752.315096251266 165.714814814815  741.666810341995 144.98087489731  791.13475177305 145.140740740741  C 844.588276677802 145.313486818221  847.152988855116 166.837037037037  886.464032421479 167.585185185185  C 919.421994293422 168.212424655427  945.823708206687 129.055555555556  967.051671732523 130.177777777778  C 967.641337386018 130.851111111111  969.262917933131 201.438888888889  969.262917933131 201.438888888889  Z " fill-rule="nonzero" fill="#2db6f4" stroke="none" transform="matrix(1 0 0 1 582 155 )" />
  </g>
</svg>