<?xml version="1.0" encoding="utf-8"?>
<svg version="1.1" xmlns:xlink="http://www.w3.org/1999/xlink" width="972px" height="173px" xmlns="http://www.w3.org/2000/svg">
  <g transform="matrix(1 0 0 1 -581 -155 )">
    <path d="M 0 101.244444444444  C 0 101.244444444444  32.2507621951219 99.7333333333333  83.7042682926829 99.7333333333333  C 135.157774390244 99.7333333333333  130.97256097561 131.466666666667  173.317073170732 131.466666666667  C 215.661585365854 131.466666666667  200.192462973069 72.766294314685  264.899390243902 73.2888888888887  C 311.675304878049 73.6666666666667  318.488061458648 93.4792274833004  346.634146341463 93.6888888888887  C 397.349085365854 94.0666666666667  392.917682926829 0.377777777777434  443.140243902439 0.755555555555384  C 493.362804878049 1.13333333333333  467.306243810783 98.1508603411404  524.875 104.266666666667  C 556.879573170732 107.666666666667  569.927591463415 103.7  612.518292682927 106.533333333333  C 655.108993902439 109.366666666667  654.370426829268 166.6  704.100609756097 166.977777777778  C 753.830792682927 167.355555555555  743.161053570022 146.416329104215  792.728658536585 146.577777777778  C 846.289876770053 146.75223421246  848.859756097561 168.488888888889  888.25 169.244444444444  C 927.640243902439 170  943.72188066922 127.514049586777  968.015243902439 129.2  " stroke-width="2" stroke="#2db7f5" fill="none" transform="matrix(1 0 0 1 582 156 )" />
  </g>
</svg>