<?xml version="1.0" encoding="utf-8"?>
<svg version="1.1" xmlns:xlink="http://www.w3.org/1999/xlink" width="200px" height="85px" xmlns="http://www.w3.org/2000/svg">
  <defs>
    <mask fill="white" id="clip2">
      <path d="M 0 80.4464285714286  L 0 4.55357142857143  C 0 2.00357142857143  3.88235294117647 0  8.82352941176471 0  L 191.176470588235 0  C 196.117647058824 0  200 2.00357142857143  200 4.55357142857143  L 200 80.4464285714286  C 200 82.9964285714286  196.117647058824 85  191.176470588235 85  L 8.82352941176471 85  C 3.88235294117647 85  0 82.9964285714286  0 80.4464285714286  Z " fill-rule="evenodd" />
    </mask>
  </defs>
  <g transform="matrix(1 0 0 1 -1047 -149 )">
    <path d="M 0 80.4464285714286  L 0 4.55357142857143  C 0 2.00357142857143  3.88235294117647 0  8.82352941176471 0  L 191.176470588235 0  C 196.117647058824 0  200 2.00357142857143  200 4.55357142857143  L 200 80.4464285714286  C 200 82.9964285714286  196.117647058824 85  191.176470588235 85  L 8.82352941176471 85  C 3.88235294117647 85  0 82.9964285714286  0 80.4464285714286  Z " fill-rule="nonzero" fill="#000000" stroke="none" transform="matrix(1 0 0 1 1047 149 )" />
    <path d="M 0 80.4464285714286  L 0 4.55357142857143  C 0 2.00357142857143  3.88235294117647 0  8.82352941176471 0  L 191.176470588235 0  C 196.117647058824 0  200 2.00357142857143  200 4.55357142857143  L 200 80.4464285714286  C 200 82.9964285714286  196.117647058824 85  191.176470588235 85  L 8.82352941176471 85  C 3.88235294117647 85  0 82.9964285714286  0 80.4464285714286  Z " stroke-width="2" stroke="#ebebeb" fill="none" transform="matrix(1 0 0 1 1047 149 )" mask="url(#clip2)" />
  </g>
</svg>