<?xml version="1.0" encoding="utf-8"?>
<svg version="1.1" xmlns:xlink="http://www.w3.org/1999/xlink" width="11px" height="8px" xmlns="http://www.w3.org/2000/svg">
  <g transform="matrix(1 0 0 1 -1020 -152 )">
    <path d="M 1025.5 153  C 1028.02 153  1030 154.32  1030 156  C 1030 157.68  1028.02 159  1025.5 159  C 1022.98 159  1021 157.68  1021 156  C 1021 154.32  1022.98 153  1025.5 153  Z " fill-rule="nonzero" fill="#ffffff" stroke="none" />
    <path d="M 1025.5 153  C 1028.02 153  1030 154.32  1030 156  C 1030 157.68  1028.02 159  1025.5 159  C 1022.98 159  1021 157.68  1021 156  C 1021 154.32  1022.98 153  1025.5 153  Z " stroke-width="2" stroke="#2db7f5" fill="none" />
  </g>
</svg>