<?xml version="1.0" encoding="utf-8"?>
<svg version="1.1" xmlns:xlink="http://www.w3.org/1999/xlink" width="17px" height="21px" xmlns="http://www.w3.org/2000/svg">
  <g transform="matrix(1 0 0 1 -43 -82 )">
    <path d="M 4.72222222222222 6.68181818181818  L 4.72222222222222 9.54545454545455  L 12.2777777777778 9.54545454545455  L 12.2777777777778 6.68181818181818  C 12.2777777777778 5.62784090909091  11.9088541666667 4.72798295454545  11.1710069444444 3.98224431818182  C 10.4331597222222 3.23650568181818  9.54282407407408 2.86363636363636  8.5 2.86363636363636  C 7.45717592592593 2.86363636363636  6.56684027777778 3.23650568181818  5.82899305555556 3.98224431818182  C 5.09114583333333 4.72798295454545  4.72222222222222 5.62784090909091  4.72222222222222 6.68181818181818  Z M 16.5868055555556 9.96306818181818  C 16.8622685185185 10.2414772727273  17 10.5795454545455  17 10.9772727272727  L 17 19.5681818181818  C 17 19.9659090909091  16.8622685185185 20.3039772727273  16.5868055555556 20.5823863636364  C 16.3113425925926 20.8607954545455  15.9768518518519 21  15.5833333333333 21  L 1.41666666666667 21  C 1.02314814814815 21  0.688657407407408 20.8607954545455  0.413194444444444 20.5823863636364  C 0.137731481481481 20.3039772727273  0 19.9659090909091  0 19.5681818181818  L 0 10.9772727272727  C 0 10.5795454545455  0.137731481481481 10.2414772727273  0.413194444444444 9.96306818181818  C 0.688657407407408 9.68465909090909  1.02314814814815 9.54545454545455  1.41666666666667 9.54545454545455  L 1.88888888888889 9.54545454545455  L 1.88888888888889 6.68181818181818  C 1.88888888888889 4.85227272727272  2.53819444444444 3.28125  3.83680555555556 1.96875  C 5.13541666666667 0.65625  6.68981481481481 0  8.5 0  C 10.3101851851852 0  11.8645833333333 0.65625  13.1631944444444 1.96875  C 14.4618055555556 3.28125  15.1111111111111 4.85227272727272  15.1111111111111 6.68181818181818  L 15.1111111111111 9.54545454545455  L 15.5833333333333 9.54545454545455  C 15.9768518518519 9.54545454545455  16.3113425925926 9.68465909090909  16.5868055555556 9.96306818181818  Z " fill-rule="nonzero" fill="#cacaca" stroke="none" transform="matrix(1 0 0 1 43 82 )" />
  </g>
</svg>