<?xml version="1.0" encoding="utf-8"?>
<svg version="1.1" xmlns:xlink="http://www.w3.org/1999/xlink" width="217px" height="45px" xmlns="http://www.w3.org/2000/svg">
  <g>
    <path d="M 199.285488747873 0.5  C 199.285488747873 0.5  202.744340198964 0.858636671196156  202.744340198964 0.858636671196156  C 202.744340198964 0.858636671196156  216.462955074897 22.5  216.462955074897 22.5  C 216.462955074897 22.5  202.744340198964 44.1413633288038  202.744340198964 44.1413633288038  C 202.744340198964 44.1413633288038  199.285488747873 44.5  199.285488747873 44.5  C 199.285488747873 44.5  0.50000000000001 44.5  0.50000000000001 44.5  C 0.50000000000001 44.5  0.5 0.499999999999998  0.5 0.499999999999998  C 0.5 0.499999999999998  199.285488747873 0.5  199.285488747873 0.5  Z " fill-rule="nonzero" fill="#ffffff" stroke="none" />
    <path d="M 199.285488747873 0.5  C 199.285488747873 0.5  202.744340198964 0.858636671196156  202.744340198964 0.858636671196156  C 202.744340198964 0.858636671196156  216.462955074897 22.5  216.462955074897 22.5  C 216.462955074897 22.5  202.744340198964 44.1413633288038  202.744340198964 44.1413633288038  C 202.744340198964 44.1413633288038  199.285488747873 44.5  199.285488747873 44.5  C 199.285488747873 44.5  0.50000000000001 44.5  0.50000000000001 44.5  C 0.50000000000001 44.5  0.5 0.499999999999998  0.5 0.499999999999998  C 0.5 0.499999999999998  199.285488747873 0.5  199.285488747873 0.5  Z " stroke-width="1" stroke="#f2f2f2" fill="none" />
  </g>
</svg>