<?xml version="1.0" encoding="utf-8"?>
<svg version="1.1" xmlns:xlink="http://www.w3.org/1999/xlink" width="23px" height="15px" xmlns="http://www.w3.org/2000/svg">
  <g transform="matrix(1 0 0 1 -43 -139 )">
    <path d="M 21.7165178571429 5.76349431818182  C 22.2042410714286 5.48650568181818  22.632068452381 5.17755681818182  23 4.83664772727273  L 23 13.2954545454545  C 23 13.7642045454545  22.7989211309524 14.1654829545455  22.3967633928571 14.4992897727273  C 21.9946056547619 14.8330965909091  21.5111607142857 15  20.9464285714286 15  L 2.05357142857143 15  C 1.48883928571429 15  1.0053943452381 14.8330965909091  0.603236607142857 14.4992897727273  C 0.201078869047619 14.1654829545455  0 13.7642045454545  0 13.2954545454545  L 0 4.83664772727273  C 0.376488095238095 5.18465909090909  0.80859375 5.49360795454545  1.29631696428571 5.76349431818182  C 4.39378720238095 7.51065340909091  6.52008928571429 8.73579545454546  7.67522321428571 9.43892045454546  C 8.16294642857143 9.73721590909091  8.55868675595238 9.96981534090909  8.86244419642857 10.13671875  C 9.16620163690476 10.3036221590909  9.57049851190476 10.4740767045455  10.0753348214286 10.6480823863636  C 10.5801711309524 10.8220880681818  11.05078125 10.9090909090909  11.4871651785714 10.9090909090909  L 11.5 10.9090909090909  L 11.5128348214286 10.9090909090909  C 11.94921875 10.9090909090909  12.4198288690476 10.8220880681818  12.9246651785714 10.6480823863636  C 13.4295014880952 10.4740767045455  13.8337983630952 10.3036221590909  14.1375558035714 10.13671875  C 14.4413132440476 9.96981534090909  14.8370535714286 9.73721590909091  15.3247767857143 9.43892045454546  C 16.7793898809524 8.56534090909091  18.9099702380952 7.34019886363636  21.7165178571429 5.76349431818182  Z M 22.3903459821429 0.500710227272727  C 22.7967819940476 0.834517045454544  23 1.23579545454545  23 1.70454545454545  C 23 2.265625  22.7903645833333 2.80184659090909  22.37109375 3.31321022727273  C 21.9518229166667 3.82457386363636  21.4298735119048 4.26136363636364  20.8052455357143 4.62357954545455  C 17.5879836309524 6.47727272727273  15.5857514880952 7.63139204545455  14.7985491071429 8.0859375  C 14.7129836309524 8.13565340909091  14.5311569940476 8.24396306818182  14.2530691964286 8.41086647727273  C 13.9749813988095 8.57776988636363  13.7439546130952 8.71271306818182  13.5599888392857 8.81569602272727  C 13.3760230654762 8.91867897727273  13.153552827381 9.03409090909091  12.892578125 9.16193181818182  C 12.631603422619 9.28977272727273  12.3856026785714 9.38565340909091  12.1545758928571 9.44957386363636  C 11.9235491071429 9.51349431818182  11.7096354166667 9.54545454545455  11.5128348214286 9.54545454545455  L 11.5 9.54545454545455  L 11.4871651785714 9.54545454545455  C 11.2903645833333 9.54545454545455  11.0764508928571 9.51349431818182  10.8454241071429 9.44957386363636  C 10.6143973214286 9.38565340909091  10.368396577381 9.28977272727273  10.107421875 9.16193181818182  C 9.84644717261905 9.03409090909091  9.62397693452381 8.91867897727273  9.44001116071428 8.81569602272727  C 9.25604538690476 8.71271306818182  9.02501860119048 8.57776988636363  8.74693080357143 8.41086647727273  C 8.46884300595238 8.24396306818182  8.28701636904762 8.13565340909091  8.20145089285714 8.0859375  C 7.42280505952381 7.63139204545455  6.30189732142857 6.98330965909091  4.83872767857143 6.14169034090909  C 3.37555803571429 5.30007102272727  2.49851190476191 4.79403409090909  2.20758928571429 4.62357954545455  C 1.67708333333333 4.32528409090909  1.17652529761905 3.91512784090909  0.705915178571429 3.39311079545455  C 0.23530505952381 2.87109375  0 2.38636363636364  0 1.93892045454545  C 0 1.38494318181818  0.177548363095238 0.923295454545452  0.532645089285714 0.553977272727273  C 0.887741815476191 0.184659090909089  1.39471726190476 0  2.05357142857143 0  L 20.9464285714286 0  C 21.5026041666667 0  21.9839099702381 0.166903409090907  22.3903459821429 0.500710227272727  Z " fill-rule="nonzero" fill="#c9c9c9" stroke="none" transform="matrix(1 0 0 1 43 139 )" />
  </g>
</svg>