<?xml version="1.0" encoding="utf-8"?>
<svg version="1.1" xmlns:xlink="http://www.w3.org/1999/xlink" width="37px" height="39px" xmlns="http://www.w3.org/2000/svg">
  <g transform="matrix(1 0 0 1 -189 -172 )">
    <path d="M 30.49609375 16.529296875  C 30.78515625 16.224609375  30.9296875 15.84375  30.9296875 15.38671875  C 30.9296875 14.9127604166667  30.78515625 14.5234375  30.49609375 14.21875  L 28.3040364583333 11.93359375  C 27.9989149305556 11.6119791666667  27.6375868055556 11.451171875  27.2200520833333 11.451171875  C 26.8025173611111 11.451171875  26.4411892361111 11.6119791666667  26.1360677083333 11.93359375  L 16.3079427083333 22.267578125  L 10.8639322916667 16.529296875  C 10.5588107638889 16.2076822916667  10.1974826388889 16.046875  9.77994791666667 16.046875  C 9.36241319444445 16.046875  9.00108506944444 16.2076822916667  8.69596354166667 16.529296875  L 6.50390625 18.814453125  C 6.21484375 19.119140625  6.0703125 19.5084635416667  6.0703125 19.982421875  C 6.0703125 20.439453125  6.21484375 20.8203125  6.50390625 21.125  L 15.2239583333333 30.31640625  C 15.5290798611111 30.6380208333333  15.8904079861111 30.798828125  16.3079427083333 30.798828125  C 16.7415364583333 30.798828125  17.1108940972222 30.6380208333333  17.416015625 30.31640625  L 30.49609375 16.529296875  Z M 34.5188802083333 9.7119140625  C 36.1729600694444 12.6995442708333  37 15.9622395833333  37 19.5  C 37 23.0377604166667  36.1729600694444 26.3004557291667  34.5188802083333 29.2880859375  C 32.8648003472222 32.2757161458333  30.6205512152778 34.6412760416667  27.7861328125 36.384765625  C 24.9517144097222 38.1282552083333  21.8563368055556 39  18.5 39  C 15.1436631944444 39  12.0482855902778 38.1282552083333  9.2138671875 36.384765625  C 6.37944878472222 34.6412760416667  4.13519965277778 32.2757161458333  2.48111979166667 29.2880859375  C 0.827039930555555 26.3004557291667  0 23.0377604166667  0 19.5  C 0 15.9622395833333  0.827039930555555 12.6995442708333  2.48111979166667 9.7119140625  C 4.13519965277778 6.72428385416667  6.37944878472222 4.35872395833333  9.2138671875 2.615234375  C 12.0482855902778 0.871744791666663  15.1436631944444 0  18.5 0  C 21.8563368055556 0  24.9517144097222 0.871744791666663  27.7861328125 2.615234375  C 30.6205512152778 4.35872395833333  32.8648003472222 6.72428385416667  34.5188802083333 9.7119140625  Z " fill-rule="nonzero" fill="#ffffff" stroke="none" transform="matrix(1 0 0 1 189 172 )" />
  </g>
</svg>