<?xml version="1.0" encoding="utf-8"?>
<svg version="1.1" xmlns:xlink="http://www.w3.org/1999/xlink" width="25px" height="25px" xmlns="http://www.w3.org/2000/svg">
  <g transform="matrix(1 0 0 1 -12 -210 )">
    <path d="M 14.8111979166667 22.367931547619  C 15.0065104166667 22.2005208333333  15.1041666666667 21.9618055555556  15.1041666666667 21.6517857142857  L 15.1041666666667 20.610119047619  L 15.1041666666667 11.9047619047619  L 15.1041666666667 8.33333333333333  L 9.89583333333333 8.33333333333333  L 9.89583333333333 11.9047619047619  L 9.89583333333333 20.610119047619  L 9.89583333333333 21.6517857142857  C 9.89583333333333 21.9618055555556  9.99348958333333 22.2005208333333  10.1888020833333 22.367931547619  C 10.3841145833333 22.5353422619048  10.6336805555556 22.6190476190476  10.9375 22.6190476190476  L 14.0625 22.6190476190476  C 14.3663194444444 22.6190476190476  14.6158854166667 22.5353422619048  14.8111979166667 22.367931547619  Z M 6.57552083333333 5.43154761904762  C 6.87934027777778 5.77876984126984  7.24826388888889 5.95238095238095  7.68229166666667 5.95238095238095  L 10.8561197916667 5.95238095238095  L 8.80533854166667 2.95758928571428  C 8.52322048611111 2.57316468253968  8.14887152777778 2.38095238095238  7.68229166666667 2.38095238095238  C 7.24826388888889 2.38095238095238  6.87934027777778 2.55456349206349  6.57552083333333 2.90178571428572  C 6.27170138888889 3.24900793650793  6.11979166666667 3.67063492063492  6.11979166666667 4.16666666666667  C 6.11979166666667 4.66269841269841  6.27170138888889 5.0843253968254  6.57552083333333 5.43154761904762  Z M 18.4244791666667 5.43154761904762  C 18.7282986111111 5.0843253968254  18.8802083333333 4.66269841269841  18.8802083333333 4.16666666666667  C 18.8802083333333 3.67063492063492  18.7282986111111 3.24900793650793  18.4244791666667 2.90178571428572  C 18.1206597222222 2.55456349206349  17.7517361111111 2.38095238095238  17.3177083333333 2.38095238095238  C 16.8511284722222 2.38095238095238  16.4767795138889 2.57316468253968  16.1946614583333 2.95758928571428  L 14.16015625 5.95238095238095  L 17.3177083333333 5.95238095238095  C 17.7517361111111 5.95238095238095  18.1206597222222 5.77876984126984  18.4244791666667 5.43154761904762  Z M 24.853515625 8.50074404761905  C 24.951171875 8.61235119047619  25 8.75496031746032  25 8.92857142857143  L 25 14.8809523809524  C 25 15.0545634920635  24.951171875 15.1971726190476  24.853515625 15.3087797619048  C 24.755859375 15.4203869047619  24.6310763888889 15.4761904761905  24.4791666666667 15.4761904761905  L 22.9166666666667 15.4761904761905  L 22.9166666666667 23.2142857142857  C 22.9166666666667 23.7103174603175  22.7647569444444 24.1319444444444  22.4609375 24.4791666666667  C 22.1571180555556 24.8263888888889  21.7881944444444 25  21.3541666666667 25  L 3.64583333333333 25  C 3.21180555555556 25  2.84288194444444 24.8263888888889  2.5390625 24.4791666666667  C 2.23524305555556 24.1319444444444  2.08333333333333 23.7103174603175  2.08333333333333 23.2142857142857  L 2.08333333333333 15.4761904761905  L 0.520833333333333 15.4761904761905  C 0.368923611111111 15.4761904761905  0.244140625 15.4203869047619  0.146484375 15.3087797619048  C 0.048828125 15.1971726190476  0 15.0545634920635  0 14.8809523809524  L 0 8.92857142857143  C 0 8.75496031746032  0.048828125 8.61235119047619  0.146484375 8.50074404761905  C 0.244140625 8.3891369047619  0.368923611111111 8.33333333333333  0.520833333333333 8.33333333333333  L 7.68229166666667 8.33333333333333  C 6.67317708333333 8.33333333333333  5.81325954861111 7.92720734126984  5.1025390625 7.11495535714286  C 4.39181857638889 6.30270337301587  4.03645833333333 5.31994047619048  4.03645833333333 4.16666666666667  C 4.03645833333333 3.01339285714286  4.39181857638889 2.03062996031746  5.1025390625 1.21837797619048  C 5.81325954861111 0.406125992063491  6.67317708333333 0  7.68229166666667 0  C 8.84331597222222 0  9.75477430555556 0.477430555555552  10.4166666666667 1.43229166666667  L 12.5 4.5014880952381  L 14.5833333333333 1.43229166666667  C 15.2452256944444 0.477430555555552  16.1566840277778 0  17.3177083333333 0  C 18.3268229166667 0  19.1867404513889 0.406125992063491  19.8974609375 1.21837797619048  C 20.6081814236111 2.03062996031746  20.9635416666667 3.01339285714286  20.9635416666667 4.16666666666667  C 20.9635416666667 5.31994047619048  20.6081814236111 6.30270337301587  19.8974609375 7.11495535714286  C 19.1867404513889 7.92720734126984  18.3268229166667 8.33333333333333  17.3177083333333 8.33333333333333  L 24.4791666666667 8.33333333333333  C 24.6310763888889 8.33333333333333  24.755859375 8.3891369047619  24.853515625 8.50074404761905  Z " fill-rule="nonzero" fill="#333333" stroke="none" transform="matrix(1 0 0 1 12 210 )" />
  </g>
</svg>