<?xml version="1.0" encoding="utf-8"?>
<svg version="1.1" xmlns:xlink="http://www.w3.org/1999/xlink" width="25px" height="25px" xmlns="http://www.w3.org/2000/svg">
  <g transform="matrix(1 0 0 1 -12 -258 )">
    <path d="M 8.40541294642857 8.94368489583333  C 8.75418526785714 9.3505859375  8.92857142857143 9.84157986111111  8.92857142857143 10.4166666666667  C 8.92857142857143 10.9917534722222  8.75418526785714 11.4827473958333  8.40541294642857 11.8896484375  C 8.056640625 12.2965494791667  7.63578869047619 12.5  7.14285714285714 12.5  C 6.6499255952381 12.5  6.22907366071429 12.2965494791667  5.88030133928571 11.8896484375  C 5.53152901785714 11.4827473958333  5.35714285714286 10.9917534722222  5.35714285714286 10.4166666666667  C 5.35714285714286 9.84157986111111  5.53152901785714 9.3505859375  5.88030133928571 8.94368489583333  C 6.22907366071429 8.53678385416667  6.6499255952381 8.33333333333333  7.14285714285714 8.33333333333333  C 7.63578869047619 8.33333333333333  8.056640625 8.53678385416667  8.40541294642857 8.94368489583333  Z M 13.7625558035714 8.94368489583333  C 14.111328125 9.3505859375  14.2857142857143 9.84157986111111  14.2857142857143 10.4166666666667  C 14.2857142857143 10.9917534722222  14.111328125 11.4827473958333  13.7625558035714 11.8896484375  C 13.4137834821429 12.2965494791667  12.992931547619 12.5  12.5 12.5  C 12.007068452381 12.5  11.5862165178571 12.2965494791667  11.2374441964286 11.8896484375  C 10.888671875 11.4827473958333  10.7142857142857 10.9917534722222  10.7142857142857 10.4166666666667  C 10.7142857142857 9.84157986111111  10.888671875 9.3505859375  11.2374441964286 8.94368489583333  C 11.5862165178571 8.53678385416667  12.007068452381 8.33333333333333  12.5 8.33333333333333  C 12.992931547619 8.33333333333333  13.4137834821429 8.53678385416667  13.7625558035714 8.94368489583333  Z M 19.1196986607143 8.94368489583333  C 19.4684709821429 9.3505859375  19.6428571428571 9.84157986111111  19.6428571428571 10.4166666666667  C 19.6428571428571 10.9917534722222  19.4684709821429 11.4827473958333  19.1196986607143 11.8896484375  C 18.7709263392857 12.2965494791667  18.3500744047619 12.5  17.8571428571429 12.5  C 17.3642113095238 12.5  16.943359375 12.2965494791667  16.5945870535714 11.8896484375  C 16.2458147321429 11.4827473958333  16.0714285714286 10.9917534722222  16.0714285714286 10.4166666666667  C 16.0714285714286 9.84157986111111  16.2458147321429 9.3505859375  16.5945870535714 8.94368489583333  C 16.943359375 8.53678385416667  17.3642113095238 8.33333333333333  17.8571428571429 8.33333333333333  C 18.3500744047619 8.33333333333333  18.7709263392857 8.53678385416667  19.1196986607143 8.94368489583333  Z M 17.822265625 3.21451822916667  C 16.1714099702381 2.46039496527778  14.3973214285714 2.08333333333333  12.5 2.08333333333333  C 10.6026785714286 2.08333333333333  8.82859002976191 2.46039496527778  7.177734375 3.21451822916667  C 5.52687872023809 3.96864149305556  4.21549479166667 4.98589409722222  3.24358258928571 6.26627604166667  C 2.27167038690476 7.54665798611111  1.78571428571429 8.93012152777778  1.78571428571429 10.4166666666667  C 1.78571428571429 11.6319444444444  2.11821056547619 12.7902560763889  2.783203125 13.8916015625  C 3.44819568452381 14.9929470486111  4.38523065476191 15.9450954861111  5.59430803571429 16.748046875  L 6.80803571428571 17.5618489583333  L 6.43136160714286 19.1243489583333  C 6.20814732142857 20.1117621527778  5.88262648809524 21.044921875  5.45479910714286 21.923828125  C 6.86848958333333 21.240234375  8.14732142857143 20.3125  9.29129464285714 19.140625  L 9.89118303571429 18.5221354166667  L 10.6863839285714 18.6197916666667  C 11.328125 18.7065972222222  11.9326636904762 18.75  12.5 18.75  C 14.3973214285714 18.75  16.1714099702381 18.3729383680556  17.822265625 17.6188151041667  C 19.4731212797619 16.8646918402778  20.7845052083333 15.8474392361111  21.7564174107143 14.5670572916667  C 22.7283296130952 13.2866753472222  23.2142857142857 11.9032118055556  23.2142857142857 10.4166666666667  C 23.2142857142857 8.93012152777778  22.7283296130952 7.54665798611111  21.7564174107143 6.26627604166667  C 20.7845052083333 4.98589409722222  19.4731212797619 3.96864149305556  17.822265625 3.21451822916667  Z M 24.0094866071429 6.3720703125  C 24.6698288690476 7.65787760416667  25 9.00607638888889  25 10.4166666666667  C 25 12.3046875  24.4419642857143 14.0489366319444  23.3258928571429 15.6494140625  C 22.2098214285714 17.2498914930556  20.6938244047619 18.5139973958333  18.7779017857143 19.4417317708333  C 16.8619791666667 20.3694661458333  14.7693452380952 20.8333333333333  12.5 20.8333333333333  C 11.8489583333333 20.8333333333333  11.1746651785714 20.7899305555556  10.4771205357143 20.703125  C 8.63560267857143 22.6019965277778  6.49646577380952 23.9149305555556  4.05970982142857 24.6419270833333  C 3.60398065476191 24.7938368055556  3.07384672619048 24.9131944444444  2.46930803571429 25  L 2.39955357142857 25  C 2.26004464285714 25  2.13448660714286 24.9430338541667  2.02287946428571 24.8291015625  C 1.91127232142857 24.7151692708333  1.83686755952381 24.5659722222222  1.79966517857143 24.3815104166667  L 1.79966517857143 24.365234375  C 1.77176339285714 24.3218315972222  1.76943824404762 24.2567274305556  1.79268973214286 24.169921875  C 1.8159412202381 24.0831163194444  1.82524181547619 24.0288628472222  1.82059151785714 24.0071614583333  C 1.8159412202381 23.9854600694444  1.83686755952381 23.9339192708333  1.88337053571429 23.8525390625  L 1.96707589285714 23.7060546875  C 1.96707589285714 23.7060546875  1.99962797619048 23.6599392361111  2.06473214285714 23.5677083333333  C 2.12983630952381 23.4754774305556  2.16703869047619 23.4266493055556  2.17633928571429 23.4212239583333  C 2.24144345238095 23.3344184027778  2.38560267857143 23.1472439236111  2.60881696428571 22.8597005208333  C 2.83203125 22.5721571180556  2.99246651785714 22.3659939236111  3.09012276785714 22.2412109375  C 3.18777901785714 22.1164279513889  3.33193824404762 21.9021267361111  3.52260044642857 21.5983072916667  C 3.71326264880952 21.2944878472222  3.86439732142857 21.0177951388889  3.97600446428571 20.7682291666667  C 4.08761160714286 20.5186631944444  4.21316964285714 20.1985677083333  4.35267857142857 19.8079427083333  C 4.4921875 19.4173177083333  4.61309523809524 19.0049913194444  4.71540178571429 18.5709635416667  C 3.25520833333333 17.6052517361111  2.10425967261905 16.4116753472222  1.26255580357143 14.990234375  C 0.420851934523809 13.5687934027778  0 12.0442708333333  0 10.4166666666667  C 0 9.00607638888889  0.330171130952381 7.65787760416667  0.990513392857143 6.3720703125  C 1.6508556547619 5.08626302083333  2.5390625 3.97677951388889  3.65513392857143 3.04361979166667  C 4.77120535714286 2.11046006944444  6.10119047619048 1.36990017361111  7.64508928571429 0.821940104166666  C 9.1889880952381 0.273980034722221  10.8072916666667 0  12.5 0  C 14.1927083333333 0  15.8110119047619 0.273980034722221  17.3549107142857 0.821940104166666  C 18.8988095238095 1.36990017361111  20.2287946428571 2.11046006944444  21.3448660714286 3.04361979166667  C 22.4609375 3.97677951388889  23.3491443452381 5.08626302083333  24.0094866071429 6.3720703125  Z " fill-rule="nonzero" fill="#333333" stroke="none" transform="matrix(1 0 0 1 12 258 )" />
  </g>
</svg>