<?xml version="1.0" encoding="utf-8"?>
<svg version="1.1" xmlns:xlink="http://www.w3.org/1999/xlink" width="27px" height="25px" xmlns="http://www.w3.org/2000/svg">
  <g transform="matrix(1 0 0 1 -11 -308 )">
    <path d="M 12.5919282511211 18.75  L 13.4394618834081 18.75  L 15.195067264574 16.6903409090909  L 12.8946188340807 13.9914772727273  L 11.1390134529148 16.0511363636364  L 11.1390134529148 17.0454545454545  L 12.5919282511211 17.0454545454545  L 12.5919282511211 18.75  Z M 20.0835201793722 6.55184659090909  C 20.2550448430493 6.35061553030303  20.2600896860987 6.15530303030303  20.0986547085202 5.96590909090909  C 19.9372197309417 5.77651515151515  19.7707399103139 5.78243371212121  19.5992152466368 5.98366477272727  L 14.3021300448431 12.1981534090909  C 14.1306053811659 12.399384469697  14.1255605381166 12.594696969697  14.2869955156951 12.7840909090909  C 14.4484304932735 12.9734848484848  14.6149103139013 12.9675662878788  14.7864349775785 12.7663352272727  L 20.0835201793722 6.55184659090909  Z M 21.0067264573991 15.9978693181818  C 21.2085201793722 16.0925662878788  21.3094170403587 16.2642045454545  21.3094170403587 16.5127840909091  L 21.3094170403587 19.8863636363636  C 21.3094170403587 21.2949810606061  20.8831278026906 22.4994081439394  20.0305493273543 23.4996448863636  C 19.1779708520179 24.4998816287879  18.1513452914798 25  16.9506726457399 25  L 4.35874439461883 25  C 3.15807174887892 25  2.13144618834081 24.4998816287879  1.27886771300448 23.4996448863636  C 0.426289237668161 22.4994081439394  0 21.2949810606061  0 19.8863636363636  L 0 5.11363636363637  C 0 3.70501893939394  0.426289237668161 2.50059185606061  1.27886771300448 1.50035511363636  C 2.13144618834081 0.500118371212119  3.15807174887892 0  4.35874439461883 0  L 16.9506726457399 0  C 17.5863228699552 0  18.1765695067265 0.147964015151514  18.7214125560538 0.443892045454544  C 18.8727578475336 0.526751893939392  18.9635650224215 0.662878787878787  18.9938340807175 0.852272727272727  C 19.0241031390135 1.05350378787879  18.9786995515695 1.22514204545454  18.8576233183856 1.3671875  L 18.1160313901345 2.23721590909091  C 17.9747757847534 2.40293560606061  17.8133408071749 2.45028409090909  17.6317264573991 2.37926136363636  C 17.39966367713 2.30823863636364  17.1726457399103 2.27272727272727  16.9506726457399 2.27272727272727  L 4.35874439461883 2.27272727272727  C 3.69282511210762 2.27272727272727  3.12275784753363 2.55089962121212  2.64854260089686 3.10724431818182  C 2.17432735426009 3.66358901515151  1.9372197309417 4.33238636363637  2 5.11363636363637  L 2 19.8863636363636  C 1.9372197309417 20.6676136363636  2.17432735426009 21.3364109848485  2.64854260089686 21.8927556818182  C 3.12275784753363 22.4491003787879  3.69282511210762 22.7272727272727  4.35874439461883 22.7272727272727  L 16.9506726457399 22.7272727272727  C 17.6165919282511 22.7272727272727  18.1866591928251 22.4491003787879  18.6608744394619 21.8927556818182  C 19.1350896860987 21.3364109848485  19.372197309417 20.6676136363636  19.372197309417 19.8863636363636  L 19.372197309417 17.6491477272727  C 19.372197309417 17.4952651515151  19.417600896861 17.3650568181818  19.5084080717489 17.2585227272727  L 20.4770179372197 16.1221590909091  C 20.6283632286996 15.9446022727273  20.804932735426 15.9031723484848  21.0067264573991 15.9978693181818  Z M 9.68609865470852 15.3409090909091  L 19.8565022421525 3.40909090909091  L 24.2152466367713 8.52272727272727  L 14.0448430493274 20.4545454545455  L 9.68609865470852 20.4545454545455  L 9.68609865470852 15.3409090909091  Z M 27 4.54545454545454  C 27 5.01893939393939  26.8587443946188 5.42140151515151  26.5762331838565 5.75284090909091  L 25.1838565022422 7.38636363636363  L 20.8251121076233 2.27272727272727  L 22.2174887892377 0.639204545454544  C 22.5 0.307765151515149  22.8430493273543 0.142045454545456  23.2466367713004 0.142045454545456  C 23.6502242152466 0.142045454545456  23.9932735426009 0.307765151515149  24.2757847533632 0.639204545454544  L 26.5762331838565 3.33806818181818  C 26.8587443946188 3.66950757575757  27 4.0719696969697  27 4.54545454545454  Z " fill-rule="nonzero" fill="#333333" stroke="none" transform="matrix(1 0 0 1 11 308 )" />
  </g>
</svg>