<?xml version="1.0" encoding="utf-8"?>
<svg version="1.1" xmlns:xlink="http://www.w3.org/1999/xlink" width="25px" height="25px" xmlns="http://www.w3.org/2000/svg">
  <g transform="matrix(1 0 0 1 -12 -161 )">
    <path d="M 0.469550369948776 9.375  L 5.77689243027888 9.375  C 6.08992601024474 9.375  6.33655852779359 9.49590773809524  6.51678998292544 9.73772321428572  C 9.04003035477139 13.1231398809524  10.7569721115538 16.7224702380952  11.6676152532726 20.5357142857143  L 5.32157085941946 20.5357142857143  C 4.11686586985392 16.4341517857143  2.3762094479226 12.9510788690476  0.099601593625498 10.0864955357143  C -0.0142287990893569 9.93768601190476  -0.0284575981787137 9.78190104166667  0.0569151963574274 9.619140625  C 0.142287990893569 9.45638020833333  0.279833048757352 9.375  0.469550369948776 9.375  Z M 8.93568582811611 5.28738839285714  C 10.9372035666856 8.44959077380952  12.5355719977234 11.4722842261905  13.7307911212294 14.35546875  C 13.2659836843104 16.2062872023809  12.6731170555872 18.0338541666667  11.9521912350598 19.8381696428571  C 11.2028078163536 16.9549851190476  9.98861696072852 14.1927083333333  8.30961866818441 11.5513392857143  C 8.68905331056726 9.49590773809524  8.89774236387782 7.40792410714286  8.93568582811611 5.28738839285714  Z M 8.94991462720546 4.46428571428572  L 15.1394422310757 4.46428571428572  C 17.3686207550749 7.47767857142857  19.1922785050275 10.7259114583333  20.6104154809334 14.208984375  C 22.0285524568393 17.6920572916667  22.9036236008348 21.2890625  23.2356289129198 25  L 16.8184405236198 25  C 16.4295200151774 18.8151041666667  13.8066780497059 11.9698660714286  8.94991462720546 4.46428571428572  Z M 23.363688104724 0.641741071428573  C 24.4545627015747 4.44568452380952  25 8.3984375  25 12.5  C 25 16.4434523809524  24.5209637639917 20.219494047619  23.562891291975 23.828125  C 22.9273382659837 18.6197916666667  21.2246253082906 13.5835193452381  18.4547524188958 8.71930803571428  C 18.2176057674066 5.91982886904762  17.7148548662493 3.20405505952381  16.946499715424 0.571986607142858  C 16.9085562511857 0.423177083333331  16.9346423828496 0.290643601190474  17.0247581104155 0.174386160714285  C 17.1148738379814 0.0581287202380959  17.2358186302409 0  17.3875924871941 0  L 22.4957313602732 0  C 22.6949345475242 0  22.8775374691709 0.060453869047622  23.0435401252134 0.181361607142858  C 23.2095427812559 0.302269345238093  23.3162587744261 0.455729166666666  23.363688104724 0.641741071428573  Z " fill-rule="nonzero" fill="#333333" stroke="none" transform="matrix(1 0 0 1 12 161 )" />
  </g>
</svg>