<?xml version="1.0" encoding="utf-8"?>
<svg version="1.1" xmlns:xlink="http://www.w3.org/1999/xlink" width="20px" height="20px" viewBox="120 548.5  20 20" xmlns="http://www.w3.org/2000/svg">
  <path d="M 130 548.5  C 135.6 548.5  140 552.9  140 558.5  C 140 564.1  135.6 568.5  130 568.5  C 124.4 568.5  120 564.1  120 558.5  C 120 552.9  124.4 548.5  130 548.5  Z " fill-rule="nonzero" fill="#ffffff" stroke="none" />
  <path d="M 130 549  C 135.32 549  139.5 553.18  139.5 558.5  C 139.5 563.82  135.32 568  130 568  C 124.68 568  120.5 563.82  120.5 558.5  C 120.5 553.18  124.68 549  130 549  Z " stroke-width="1" stroke="#797979" fill="none" />
  <path d="M 130 563.5  C 127.2 563.5  125 561.3  125 558.5  C 125 555.7  127.2 553.5  130 553.5  C 132.8 553.5  135 555.7  135 558.5  C 135 561.3  132.8 563.5  130 563.5  " fill-rule="nonzero" fill="#797979" stroke="none" />
</svg>