<?xml version="1.0" encoding="utf-8"?>
<svg version="1.1" xmlns:xlink="http://www.w3.org/1999/xlink" width="20px" height="20px" viewBox="271 18.5  20 20" xmlns="http://www.w3.org/2000/svg">
  <path d="M 281 18.5  C 286.6 18.5  291 22.9  291 28.5  C 291 34.1  286.6 38.5  281 38.5  C 275.4 38.5  271 34.1  271 28.5  C 271 22.9  275.4 18.5  281 18.5  Z " fill-rule="nonzero" fill="#ffffff" stroke="none" />
  <path d="M 281 19  C 286.32 19  290.5 23.18  290.5 28.5  C 290.5 33.82  286.32 38  281 38  C 275.68 38  271.5 33.82  271.5 28.5  C 271.5 23.18  275.68 19  281 19  Z " stroke-width="1" stroke="#797979" fill="none" />
  <path d="M 281 33.5  C 278.2 33.5  276 31.3  276 28.5  C 276 25.7  278.2 23.5  281 23.5  C 283.8 23.5  286 25.7  286 28.5  C 286 31.3  283.8 33.5  281 33.5  " fill-rule="nonzero" fill="#797979" stroke="none" />
</svg>