<?xml version="1.0" encoding="utf-8"?>
<svg version="1.1" xmlns:xlink="http://www.w3.org/1999/xlink" width="20px" height="20px" viewBox="58 18.5  20 20" xmlns="http://www.w3.org/2000/svg">
  <path d="M 68 18.5  C 73.6 18.5  78 22.9  78 28.5  C 78 34.1  73.6 38.5  68 38.5  C 62.4 38.5  58 34.1  58 28.5  C 58 22.9  62.4 18.5  68 18.5  Z " fill-rule="nonzero" fill="#ffffff" stroke="none" />
  <path d="M 68 19  C 73.32 19  77.5 23.18  77.5 28.5  C 77.5 33.82  73.32 38  68 38  C 62.68 38  58.5 33.82  58.5 28.5  C 58.5 23.18  62.68 19  68 19  Z " stroke-width="1" stroke="#797979" fill="none" />
  <path d="M 68 33.5  C 65.2 33.5  63 31.3  63 28.5  C 63 25.7  65.2 23.5  68 23.5  C 70.8 23.5  73 25.7  73 28.5  C 73 31.3  70.8 33.5  68 33.5  " fill-rule="nonzero" fill="#797979" stroke="none" />
</svg>