<?xml version="1.0" encoding="utf-8"?>
<svg version="1.1" xmlns:xlink="http://www.w3.org/1999/xlink" width="20px" height="20px" viewBox="120 598.5  20 20" xmlns="http://www.w3.org/2000/svg">
  <path d="M 130 598.5  C 135.6 598.5  140 602.9  140 608.5  C 140 614.1  135.6 618.5  130 618.5  C 124.4 618.5  120 614.1  120 608.5  C 120 602.9  124.4 598.5  130 598.5  Z " fill-rule="nonzero" fill="#ffffff" stroke="none" />
  <path d="M 130 599  C 135.32 599  139.5 603.18  139.5 608.5  C 139.5 613.82  135.32 618  130 618  C 124.68 618  120.5 613.82  120.5 608.5  C 120.5 603.18  124.68 599  130 599  Z " stroke-width="1" stroke="#797979" fill="none" />
  <path d="M 130 613.5  C 127.2 613.5  125 611.3  125 608.5  C 125 605.7  127.2 603.5  130 603.5  C 132.8 603.5  135 605.7  135 608.5  C 135 611.3  132.8 613.5  130 613.5  " fill-rule="nonzero" fill="#797979" stroke="none" />
</svg>