<?xml version="1.0" encoding="utf-8"?>
<svg version="1.1" xmlns:xlink="http://www.w3.org/1999/xlink" width="20px" height="20px" viewBox="333 598.5  20 20" xmlns="http://www.w3.org/2000/svg">
  <path d="M 343 598.5  C 348.6 598.5  353 602.9  353 608.5  C 353 614.1  348.6 618.5  343 618.5  C 337.4 618.5  333 614.1  333 608.5  C 333 602.9  337.4 598.5  343 598.5  Z " fill-rule="nonzero" fill="#ffffff" stroke="none" />
  <path d="M 343 599  C 348.32 599  352.5 603.18  352.5 608.5  C 352.5 613.82  348.32 618  343 618  C 337.68 618  333.5 613.82  333.5 608.5  C 333.5 603.18  337.68 599  343 599  Z " stroke-width="1" stroke="#797979" fill="none" />
  <path d="M 343 613.5  C 340.2 613.5  338 611.3  338 608.5  C 338 605.7  340.2 603.5  343 603.5  C 345.8 603.5  348 605.7  348 608.5  C 348 611.3  345.8 613.5  343 613.5  " fill-rule="nonzero" fill="#797979" stroke="none" />
</svg>