<?xml version="1.0" encoding="utf-8"?>
<svg version="1.1" xmlns:xlink="http://www.w3.org/1999/xlink" width="60px" height="60px" xmlns="http://www.w3.org/2000/svg">
  <g transform="matrix(1 0 0 1 -608 -97 )">
    <path d="M 638 98  C 654.24 98  667 110.76  667 127  C 667 143.24  654.24 156  638 156  C 621.76 156  609 143.24  609 127  C 609 110.76  621.76 98  638 98  Z " fill-rule="nonzero" fill="#ffffff" stroke="none" fill-opacity="0" />
    <path d="M 638 98  C 654.24 98  667 110.76  667 127  C 667 143.24  654.24 156  638 156  C 621.76 156  609 143.24  609 127  C 609 110.76  621.76 98  638 98  Z " stroke-width="2" stroke="#797979" fill="none" />
  </g>
</svg>