<?xml version="1.0" encoding="utf-8"?>
<svg version="1.1" xmlns:xlink="http://www.w3.org/1999/xlink" width="60px" height="60px" xmlns="http://www.w3.org/2000/svg">
  <g transform="matrix(1 0 0 1 -275 -97 )">
    <path d="M 305 98  C 321.24 98  334 110.76  334 127  C 334 143.24  321.24 156  305 156  C 288.76 156  276 143.24  276 127  C 276 110.76  288.76 98  305 98  Z " fill-rule="nonzero" fill="#2295fd" stroke="none" />
    <path d="M 305 98  C 321.24 98  334 110.76  334 127  C 334 143.24  321.24 156  305 156  C 288.76 156  276 143.24  276 127  C 276 110.76  288.76 98  305 98  Z " stroke-width="2" stroke="#2295fd" fill="none" />
  </g>
</svg>