<?xml version="1.0" encoding="utf-8"?>
<svg version="1.1" xmlns:xlink="http://www.w3.org/1999/xlink" width="55px" height="46px" xmlns="http://www.w3.org/2000/svg">
  <g transform="matrix(1 0 0 1 -180 -186 )">
    <path d="M 16.7291666666667 9.34375  C 17.7986111111111 10.4618055555556  18.3333333333333 11.8194444444444  18.3333333333333 13.4166666666667  C 18.3333333333333 15.0138888888889  17.7986111111111 16.3715277777778  16.7291666666667 17.4895833333333  C 15.6597222222222 18.6076388888889  14.3611111111111 19.1666666666667  12.8333333333333 19.1666666666667  C 11.3055555555556 19.1666666666667  10.0069444444444 18.6076388888889  8.9375 17.4895833333333  C 7.86805555555556 16.3715277777778  7.33333333333333 15.0138888888889  7.33333333333333 13.4166666666667  C 7.33333333333333 11.8194444444444  7.86805555555556 10.4618055555556  8.9375 9.34375  C 10.0069444444444 8.22569444444444  11.3055555555556 7.66666666666667  12.8333333333333 7.66666666666667  C 14.3611111111111 7.66666666666667  15.6597222222222 8.22569444444444  16.7291666666667 9.34375  Z M 35.75 12.4583333333333  L 47 24.9166666666667  L 47 38  L 7.33333333333333 38  L 7.33333333333333 32.5833333333333  L 16.5 23  L 21.0833333333333 27.7916666666667  L 35.75 12.4583333333333  Z M 51.0611979166667 4.11783854166667  C 50.8797743055556 3.92816840277777  50.6649305555556 3.83333333333333  50.4166666666667 4  L 4.58333333333333 4  C 4.33506944444444 3.83333333333333  4.12022569444444 3.92816840277777  3.93880208333333 4.11783854166667  C 3.75737847222222 4.30750868055555  3.66666666666667 4.53211805555555  4 4.79166666666667  L 4 41.2083333333333  C 3.66666666666667 41.4678819444445  3.75737847222222 41.6924913194445  3.93880208333333 41.8821614583333  C 4.12022569444444 42.0718315972222  4.33506944444444 42.1666666666667  4.58333333333333 42  L 50.4166666666667 42  C 50.6649305555556 42.1666666666667  50.8797743055556 42.0718315972222  51.0611979166667 41.8821614583333  C 51.2426215277778 41.6924913194445  51.3333333333333 41.4678819444445  51 41.2083333333333  L 51 4.79166666666667  C 51.3333333333333 4.53211805555555  51.2426215277778 4.30750868055555  51.0611979166667 4.11783854166667  Z M 53.6536458333333 1.40755208333334  C 54.5512152777778 2.34592013888889  55 3.47395833333333  55 4.79166666666667  L 55 41.2083333333333  C 55 42.5260416666667  54.5512152777778 43.6540798611111  53.6536458333333 44.5924479166667  C 52.7560763888889 45.5308159722222  51.6770833333333 46  50.4166666666667 46  L 4.58333333333333 46  C 3.32291666666667 46  2.24392361111111 45.5308159722222  1.34635416666667 44.5924479166667  C 0.448784722222222 43.6540798611111  0 42.5260416666667  0 41.2083333333333  L 0 4.79166666666667  C 0 3.47395833333333  0.448784722222222 2.34592013888889  1.34635416666667 1.40755208333334  C 2.24392361111111 0.469184027777773  3.32291666666667 0  4.58333333333333 0  L 50.4166666666667 0  C 51.6770833333333 0  52.7560763888889 0.469184027777773  53.6536458333333 1.40755208333334  Z " fill-rule="nonzero" fill="#ffffff" stroke="none" transform="matrix(1 0 0 1 180 186 )" />
  </g>
</svg>