<?xml version="1.0" encoding="utf-8"?>
<svg version="1.1" xmlns:xlink="http://www.w3.org/1999/xlink" width="18px" height="18px" xmlns="http://www.w3.org/2000/svg">
  <g transform="matrix(1 0 0 1 -20 -11 )">
    <path d="M 4.482421875 1.20703124999997  C 5.861328125 0.402343749999957  7.3671875 0  9 0  C 10.6328125 0  12.138671875 0.402343749999957  13.517578125 1.20703124999997  C 14.896484375 2.01171874999999  15.98828125 3.10351562500001  16.79296875 4.482421875  C 17.59765625 5.86132812499999  18 7.36718749999994  18 9  C 18 10.6328125  17.59765625 12.138671875  16.79296875 13.517578125  C 15.98828125 14.896484375  14.896484375 15.98828125  13.517578125 16.79296875  C 12.138671875 17.5976562499999  10.6328125 18  9 18  C 7.3671875 18  5.861328125 17.5976562499999  4.482421875 16.79296875  C 3.103515625 15.98828125  2.01171875 14.896484375  1.20703125000004 13.517578125  C 0.40234375 12.138671875  0 10.6328125  0 9  C 0 7.36718749999994  0.40234375 5.86132812499999  1.20703125000004 4.482421875  C 2.01171875 3.10351562500001  3.103515625 2.01171874999999  4.482421875 1.20703124999997  Z M 10.39453125 14.888671875  C 10.46484375 14.814453125  10.5 14.72265625  10.5 14.61328125  L 10.5 12.38671875  C 10.5 12.27734375  10.46484375 12.185546875  10.39453125 12.111328125  C 10.32421875 12.037109375  10.23828125 12  10.13671875 12  L 7.88671875000004 12  C 7.78515625 12  7.69531249999996 12.0390625  7.61718749999996 12.1171875  C 7.5390625 12.1953125  7.50000000000004 12.2851562500001  7.50000000000004 12.38671875  L 7.50000000000004 14.61328125  C 7.50000000000004 14.7148437499999  7.5390625 14.8046875  7.61718749999996 14.8828125  C 7.69531249999996 14.9609374999999  7.78515625 15  7.88671875000004 15  L 10.13671875 15  C 10.23828125 15  10.32421875 14.962890625  10.39453125 14.888671875  Z M 10.353515625 10.787109375  C 10.427734375 10.728515625  10.46875 10.66015625  10.4765625 10.58203125  L 10.6875 3.3046875  C 10.6875 3.21093749999997  10.6484375 3.14062499999997  10.5703125 3.09375  C 10.4921875 3.03124999999999  10.3984375 2.99999999999997  10.2890625 2.99999999999997  L 7.71093750000004 2.99999999999997  C 7.6015625 2.99999999999997  7.5078125 3.03124999999999  7.42968750000004 3.09375  C 7.35156250000004 3.14062499999997  7.3125 3.21093749999997  7.3125 3.3046875  L 7.51171874999996 10.58203125  C 7.51171874999996 10.66015625  7.55078125 10.728515625  7.62890625 10.787109375  C 7.70703125 10.845703125  7.80078124999996 10.875  7.91015625 10.875  L 10.078125 10.875  C 10.1875 10.875  10.279296875 10.845703125  10.353515625 10.787109375  Z " fill-rule="nonzero" fill="#f76a24" stroke="none" transform="matrix(1 0 0 1 20 11 )" />
  </g>
</svg>