<?xml version="1.0" encoding="utf-8"?>
<svg version="1.1" xmlns:xlink="http://www.w3.org/1999/xlink" width="20px" height="28px" xmlns="http://www.w3.org/2000/svg">
  <g transform="matrix(1 0 0 1 -20 -10 )">
    <path d="M 19.6701388888889 11.0889423076923  C 19.8900462962963 11.3020833333333  20 11.5544871794872  20 11.8461538461538  L 20 14  C 20 16.4791666666667  19.146412037037 18.6358173076923  17.4392361111111 20.4699519230769  C 15.7320601851852 22.3040865384615  13.6226851851852 23.3557692307692  11.1111111111111 23.625  L 11.1111111111111 25.8461538461538  L 15.5555555555556 25.8461538461538  C 15.8564814814815 25.8461538461538  16.1168981481481 25.9527243589744  16.3368055555556 26.1658653846154  C 16.556712962963 26.3790064102564  16.6666666666667 26.6314102564103  16.6666666666667 26.9230769230769  C 16.6666666666667 27.2147435897436  16.556712962963 27.4671474358974  16.3368055555556 27.6802884615385  C 16.1168981481481 27.8934294871795  15.8564814814815 28  15.5555555555556 28  L 4.44444444444444 28  C 4.14351851851852 28  3.88310185185185 27.8934294871795  3.66319444444444 27.6802884615385  C 3.44328703703704 27.4671474358974  3.33333333333333 27.2147435897436  3.33333333333333 26.9230769230769  C 3.33333333333333 26.6314102564103  3.44328703703704 26.3790064102564  3.66319444444444 26.1658653846154  C 3.88310185185185 25.9527243589744  4.14351851851852 25.8461538461538  4.44444444444444 25.8461538461538  L 8.88888888888889 25.8461538461538  L 8.88888888888889 23.625  C 6.37731481481481 23.3557692307692  4.26793981481481 22.3040865384615  2.56076388888889 20.4699519230769  C 0.853587962962963 18.6358173076923  0 16.4791666666667  0 14  L 0 11.8461538461538  C 0 11.5544871794872  0.109953703703704 11.3020833333333  0.329861111111111 11.0889423076923  C 0.549768518518518 10.8758012820513  0.810185185185185 10.7692307692308  1.11111111111111 10.7692307692308  C 1.41203703703704 10.7692307692308  1.6724537037037 10.8758012820513  1.89236111111111 11.0889423076923  C 2.11226851851852 11.3020833333333  2.22222222222222 11.5544871794872  2.22222222222222 11.8461538461538  L 2.22222222222222 14  C 2.22222222222222 16.0753205128205  2.98321759259259 17.8505608974359  4.50520833333333 19.3257211538462  C 6.02719907407407 20.8008814102564  7.8587962962963 21.5384615384615  10 21.5384615384615  C 12.1412037037037 21.5384615384615  13.9728009259259 20.8008814102564  15.4947916666667 19.3257211538462  C 17.0167824074074 17.8505608974359  17.7777777777778 16.0753205128205  17.7777777777778 14  L 17.7777777777778 11.8461538461538  C 17.7777777777778 11.5544871794872  17.8877314814815 11.3020833333333  18.1076388888889 11.0889423076923  C 18.3275462962963 10.8758012820513  18.587962962963 10.7692307692308  18.8888888888889 10.7692307692308  C 19.1898148148148 10.7692307692308  19.4502314814815 10.8758012820513  19.6701388888889 11.0889423076923  Z M 13.9236111111111 1.58173076923077  C 15.0115740740741 2.63621794871795  15.5555555555556 3.90384615384615  15.5555555555556 5.38461538461538  L 15.5555555555556 14  C 15.5555555555556 15.4807692307692  15.0115740740741 16.7483974358974  13.9236111111111 17.8028846153846  C 12.8356481481481 18.8573717948718  11.5277777777778 19.3846153846154  10 19.3846153846154  C 8.47222222222222 19.3846153846154  7.16435185185185 18.8573717948718  6.07638888888889 17.8028846153846  C 4.98842592592593 16.7483974358974  4.44444444444444 15.4807692307692  4.44444444444444 14  L 4.44444444444444 5.38461538461538  C 4.44444444444444 3.90384615384615  4.98842592592593 2.63621794871795  6.07638888888889 1.58173076923077  C 7.16435185185185 0.527243589743593  8.47222222222222 0  10 0  C 11.5277777777778 0  12.8356481481481 0.527243589743593  13.9236111111111 1.58173076923077  Z " fill-rule="nonzero" fill="#999999" stroke="none" transform="matrix(1 0 0 1 20 10 )" />
  </g>
</svg>