<?xml version="1.0" encoding="utf-8"?>
<svg version="1.1" xmlns:xlink="http://www.w3.org/1999/xlink" width="475px" height="50px" xmlns="http://www.w3.org/2000/svg">
  <g transform="matrix(1 0 0 1 -723 -370 )">
    <path d="M 724 376  A 5 5 0 0 1 729 371 L 1192 371  A 5 5 0 0 1 1197 376 L 1197 414  A 5 5 0 0 1 1192 419 L 729 419  A 5 5 0 0 1 724 414 L 724 376  Z " fill-rule="nonzero" fill="#ffffff" stroke="none" fill-opacity="0" />
    <path d="M 723.5 376  A 5.5 5.5 0 0 1 729 370.5 L 1192 370.5  A 5.5 5.5 0 0 1 1197.5 376 L 1197.5 414  A 5.5 5.5 0 0 1 1192 419.5 L 729 419.5  A 5.5 5.5 0 0 1 723.5 414 L 723.5 376  Z " stroke-width="1" stroke="#797979" fill="none" stroke-opacity="0.603921568627451" />
  </g>
</svg>