<?xml version="1.0" encoding="utf-8"?>
<svg version="1.1" xmlns:xlink="http://www.w3.org/1999/xlink" width="96px" height="96px" xmlns="http://www.w3.org/2000/svg">
  <g transform="matrix(1 0 0 1 -161 -52 )">
    <path d="M 67.0714285714286 84.4553571428571  C 72.9642857142857 81.3303571428572  77.8035714285714 77.0892857142857  81.5892857142857 71.7321428571429  C 80.8035714285714 66.1964285714286  79.2410714285714 61.5982142857143  76.9017857142857 57.9375  C 74.5625 54.2767857142857  71.2678571428572 52.1607142857143  67.0178571428571 51.5892857142857  C 64.625 54.2321428571428  61.7767857142857 56.2946428571428  58.4732142857143 57.7767857142857  C 55.1696428571429 59.2589285714286  51.6785714285714 60  48 60  C 44.3214285714286 60  40.8303571428571 59.2589285714286  37.5267857142857 57.7767857142857  C 34.2232142857143 56.2946428571428  31.375 54.2321428571428  28.9821428571429 51.5892857142857  C 24.7321428571429 52.1607142857143  21.4375 54.2767857142857  19.0982142857143 57.9375  C 16.7589285714286 61.5982142857143  15.1964285714286 66.1964285714286  14.4107142857143 71.7321428571429  C 18.1964285714286 77.0892857142857  23.0357142857143 81.3303571428572  28.9285714285714 84.4553571428571  C 34.8214285714286 87.5803571428571  41.1785714285714 89.1428571428571  48 89.1428571428571  C 54.8214285714286 89.1428571428571  61.1785714285714 87.5803571428571  67.0714285714286 84.4553571428571  Z M 62.5446428571429 48.8303571428571  C 66.5625 44.8125  68.5714285714286 39.9642857142857  68.5714285714286 34.2857142857143  C 68.5714285714286 28.6071428571429  66.5625 23.7589285714286  62.5446428571429 19.7410714285714  C 58.5267857142857 15.7232142857143  53.6785714285714 13.7142857142857  48 13.7142857142857  C 42.3214285714286 13.7142857142857  37.4732142857143 15.7232142857143  33.4553571428571 19.7410714285714  C 29.4375 23.7589285714286  27.4285714285714 28.6071428571429  27.4285714285714 34.2857142857143  C 27.4285714285714 39.9642857142857  29.4375 44.8125  33.4553571428571 48.8303571428571  C 37.4732142857143 52.8482142857143  42.3214285714286 54.8571428571429  48 54.8571428571429  C 53.6785714285714 54.8571428571429  58.5267857142857 52.8482142857143  62.5446428571429 48.8303571428571  Z M 92.1964285714286 29.3571428571429  C 94.7321428571429 35.2857142857143  96 41.5  96 48  C 96 54.5  94.7321428571429 60.7053571428571  92.1964285714286 66.6160714285714  C 89.6607142857143 72.5267857142857  86.2589285714286 77.6339285714286  81.9910714285714 81.9375  C 77.7232142857143 86.2410714285714  72.625 89.6607142857143  66.6964285714286 92.1964285714286  C 60.7678571428572 94.7321428571429  54.5357142857143 96  48 96  C 41.5 96  35.2857142857143 94.7321428571429  29.3571428571429 92.1964285714286  C 23.4285714285714 89.6607142857143  18.3214285714286 86.25  14.0357142857143 81.9642857142857  C 9.75 77.6785714285714  6.33928571428571 72.5714285714286  3.80357142857143 66.6428571428571  C 1.26785714285714 60.7142857142857  0 54.5  0 48  C 0 41.5  1.26785714285714 35.2857142857143  3.80357142857143 29.3571428571429  C 6.33928571428571 23.4285714285714  9.75 18.3214285714286  14.0357142857143 14.0357142857143  C 18.3214285714286 9.75  23.4285714285714 6.33928571428571  29.3571428571429 3.80357142857143  C 35.2857142857143 1.26785714285714  41.5 0  48 0  C 54.5 0  60.7142857142857 1.26785714285714  66.6428571428571 3.80357142857143  C 72.5714285714286 6.33928571428571  77.6785714285714 9.75  81.9642857142857 14.0357142857143  C 86.25 18.3214285714286  89.6607142857143 23.4285714285714  92.1964285714286 29.3571428571429  Z " fill-rule="nonzero" fill="#cbcbcb" stroke="none" transform="matrix(1 0 0 1 161 52 )" />
  </g>
</svg>