<?xml version="1.0" encoding="utf-8"?>
<svg version="1.1" xmlns:xlink="http://www.w3.org/1999/xlink" width="12px" height="15px" xmlns="http://www.w3.org/2000/svg">
  <g transform="matrix(1 0 0 1 -45 -275 )">
    <path d="M 3.33333333333333 4.77272727272727  L 3.33333333333333 6.81818181818182  L 8.66666666666667 6.81818181818182  L 8.66666666666667 4.77272727272727  C 8.66666666666667 4.01988636363636  8.40625 3.37713068181818  7.88541666666667 2.84446022727273  C 7.36458333333333 2.31178977272727  6.73611111111111 2.04545454545455  6 2.04545454545455  C 5.26388888888889 2.04545454545455  4.63541666666667 2.31178977272727  4.11458333333333 2.84446022727273  C 3.59375 3.37713068181818  3.33333333333333 4.01988636363636  3.33333333333333 4.77272727272727  Z M 11.7083333333333 7.11647727272727  C 11.9027777777778 7.31534090909091  12 7.55681818181818  12 7.84090909090909  L 12 13.9772727272727  C 12 14.2613636363636  11.9027777777778 14.5028409090909  11.7083333333333 14.7017045454545  C 11.5138888888889 14.9005681818182  11.2777777777778 15  11 15  L 1 15  C 0.722222222222222 15  0.486111111111111 14.9005681818182  0.291666666666667 14.7017045454545  C 0.0972222222222222 14.5028409090909  0 14.2613636363636  0 13.9772727272727  L 0 7.84090909090909  C 0 7.55681818181818  0.0972222222222222 7.31534090909091  0.291666666666667 7.11647727272727  C 0.486111111111111 6.91761363636364  0.722222222222222 6.81818181818182  1 6.81818181818182  L 1.33333333333333 6.81818181818182  L 1.33333333333333 4.77272727272727  C 1.33333333333333 3.46590909090909  1.79166666666667 2.34375  2.70833333333333 1.40625  C 3.625 0.46875  4.72222222222222 0  6 0  C 7.27777777777778 0  8.375 0.46875  9.29166666666667 1.40625  C 10.2083333333333 2.34375  10.6666666666667 3.46590909090909  10.6666666666667 4.77272727272727  L 10.6666666666667 6.81818181818182  L 11 6.81818181818182  C 11.2777777777778 6.81818181818182  11.5138888888889 6.91761363636364  11.7083333333333 7.11647727272727  Z " fill-rule="nonzero" fill="#cacaca" stroke="none" transform="matrix(1 0 0 1 45 275 )" />
  </g>
</svg>