<?xml version="1.0" encoding="utf-8"?>
<svg version="1.1" xmlns:xlink="http://www.w3.org/1999/xlink" width="11px" height="18px" xmlns="http://www.w3.org/2000/svg">
  <g transform="matrix(1 0 0 1 -45 -219 )">
    <path d="M 6.30924479166667 16.99453125  C 6.53363715277778 16.77421875  6.64583333333333 16.509375  6.64583333333333 16.2  C 6.64583333333333 15.890625  6.53363715277778 15.62578125  6.30924479166667 15.40546875  C 6.08485243055556 15.18515625  5.81510416666667 15.075  5.5 15.075  C 5.18489583333333 15.075  4.91514756944444 15.18515625  4.69075520833333 15.40546875  C 4.46636284722222 15.62578125  4.35416666666667 15.890625  4.35416666666667 16.2  C 4.35416666666667 16.509375  4.46636284722222 16.77421875  4.69075520833333 16.99453125  C 4.91514756944444 17.21484375  5.18489583333333 17.325  5.5 17.325  C 5.81510416666667 17.325  6.08485243055556 17.21484375  6.30924479166667 16.99453125  Z M 9.48893229166667 14.26640625  C 9.57964409722222 14.17734375  9.625 14.071875  9.625 13.95  L 9.625 4.05  C 9.625 3.928125  9.57964409722222 3.82265625  9.48893229166667 3.73359375  C 9.39822048611111 3.64453125  9.29079861111111 3.6  9.16666666666667 3.6  L 1.83333333333333 3.6  C 1.70920138888889 3.6  1.60177951388889 3.64453125  1.51106770833333 3.73359375  C 1.42035590277778 3.82265625  1.375 3.928125  1.375 4.05  L 1.375 13.95  C 1.375 14.071875  1.42035590277778 14.17734375  1.51106770833333 14.26640625  C 1.60177951388889 14.35546875  1.70920138888889 14.4  1.83333333333333 14.4  L 9.16666666666667 14.4  C 9.29079861111111 14.4  9.39822048611111 14.35546875  9.48893229166667 14.26640625  Z M 6.64583333333333 2.25  C 6.79861111111111 2.25  6.875 2.175  6.875 2.025  C 6.875 1.875  6.79861111111111 1.8  6.64583333333333 1.8  L 4.35416666666667 1.8  C 4.20138888888889 1.8  4.125 1.875  4.125 2.025  C 4.125 2.175  4.20138888888889 2.25  4.35416666666667 2.25  L 6.64583333333333 2.25  Z M 10.4557291666667 0.534375  C 10.8185763888889 0.890624999999999  11 1.3125  11 1.8  L 11 16.2  C 11 16.6875  10.8185763888889 17.109375  10.4557291666667 17.465625  C 10.0928819444444 17.821875  9.66319444444445 18  9.16666666666667 18  L 1.83333333333333 18  C 1.33680555555556 18  0.907118055555556 17.821875  0.544270833333333 17.465625  C 0.181423611111111 17.109375  0 16.6875  0 16.2  L 0 1.8  C 0 1.3125  0.181423611111111 0.890624999999999  0.544270833333333 0.534375  C 0.907118055555556 0.178124999999998  1.33680555555556 0  1.83333333333333 0  L 9.16666666666667 0  C 9.66319444444445 0  10.0928819444444 0.178124999999998  10.4557291666667 0.534375  Z " fill-rule="nonzero" fill="#c9c9c9" stroke="none" transform="matrix(1 0 0 1 45 219 )" />
  </g>
</svg>