<?xml version="1.0" encoding="utf-8"?>
<svg version="1.1" xmlns:xlink="http://www.w3.org/1999/xlink" width="36px" height="36px" xmlns="http://www.w3.org/2000/svg">
  <g transform="matrix(1 0 0 1 -189 -384 )">
    <path d="M 29.671875 15.2578125  C 29.953125 14.9765625  30.09375 14.625  30.09375 14.203125  C 30.09375 13.765625  29.953125 13.40625  29.671875 13.125  L 27.5390625 11.015625  C 27.2421875 10.71875  26.890625 10.5703125  26.484375 10.5703125  C 26.078125 10.5703125  25.7265625 10.71875  25.4296875 11.015625  L 15.8671875 20.5546875  L 10.5703125 15.2578125  C 10.2734375 14.9609375  9.921875 14.8125  9.515625 14.8125  C 9.109375 14.8125  8.7578125 14.9609375  8.4609375 15.2578125  L 6.328125 17.3671875  C 6.046875 17.6484375  5.90625 18.0078125  5.90625 18.4453125  C 5.90625 18.8671875  6.046875 19.21875  6.328125 19.5  L 14.8125 27.984375  C 15.109375 28.28125  15.4609375 28.4296875  15.8671875 28.4296875  C 16.2890625 28.4296875  16.6484375 28.28125  16.9453125 27.984375  L 29.671875 15.2578125  Z M 33.5859375 8.96484375  C 35.1953125 11.72265625  36 14.734375  36 18  C 36 21.265625  35.1953125 24.27734375  33.5859375 27.03515625  C 31.9765625 29.79296875  29.79296875 31.9765625  27.03515625 33.5859375  C 24.27734375 35.1953125  21.265625 36  18 36  C 14.734375 36  11.72265625 35.1953125  8.96484375 33.5859375  C 6.20703125 31.9765625  4.0234375 29.79296875  2.4140625 27.03515625  C 0.8046875 24.27734375  0 21.265625  0 18  C 0 14.734375  0.8046875 11.72265625  2.4140625 8.96484375  C 4.0234375 6.20703125  6.20703125 4.0234375  8.96484375 2.4140625  C 11.72265625 0.804687499999997  14.734375 0  18 0  C 21.265625 0  24.27734375 0.804687499999997  27.03515625 2.4140625  C 29.79296875 4.0234375  31.9765625 6.20703125  33.5859375 8.96484375  Z " fill-rule="nonzero" fill="#ffffff" stroke="none" transform="matrix(1 0 0 1 189 384 )" />
  </g>
</svg>