<?xml version="1.0" encoding="utf-8"?>
<svg version="1.1" xmlns:xlink="http://www.w3.org/1999/xlink" width="297px" height="50px" xmlns="http://www.w3.org/2000/svg">
  <g transform="matrix(1 0 0 1 -723 -536 )">
    <path d="M 724 542  A 5 5 0 0 1 729 537 L 1014 537  A 5 5 0 0 1 1019 542 L 1019 580  A 5 5 0 0 1 1014 585 L 729 585  A 5 5 0 0 1 724 580 L 724 542  Z " fill-rule="nonzero" fill="#ffffff" stroke="none" fill-opacity="0" />
    <path d="M 723.5 542  A 5.5 5.5 0 0 1 729 536.5 L 1014 536.5  A 5.5 5.5 0 0 1 1019.5 542 L 1019.5 580  A 5.5 5.5 0 0 1 1014 585.5 L 729 585.5  A 5.5 5.5 0 0 1 723.5 580 L 723.5 542  Z " stroke-width="1" stroke="#797979" fill="none" stroke-opacity="0.603921568627451" />
  </g>
</svg>