<?xml version="1.0" encoding="utf-8"?>
<svg version="1.1" xmlns:xlink="http://www.w3.org/1999/xlink" width="62px" height="60px" xmlns="http://www.w3.org/2000/svg">
  <g transform="matrix(1 0 0 1 -940 -95 )">
    <path d="M 971 96  C 987.8 96  1001 108.76  1001 125  C 1001 141.24  987.8 154  971 154  C 954.2 154  941 141.24  941 125  C 941 108.76  954.2 96  971 96  Z " fill-rule="nonzero" fill="#ffffff" stroke="none" fill-opacity="0" />
    <path d="M 971 96  C 987.8 96  1001 108.76  1001 125  C 1001 141.24  987.8 154  971 154  C 954.2 154  941 141.24  941 125  C 941 108.76  954.2 96  971 96  Z " stroke-width="2" stroke="#797979" fill="none" />
  </g>
</svg>