<?xml version="1.0" encoding="utf-8"?>
<svg version="1.1" xmlns:xlink="http://www.w3.org/1999/xlink" width="96px" height="32px" xmlns="http://www.w3.org/2000/svg">
  <g transform="matrix(1 0 0 1 -1171 -863 )">
    <path d="M 1172 867  A 3 3 0 0 1 1175 864 L 1263 864  A 3 3 0 0 1 1266 867 L 1266 891  A 3 3 0 0 1 1263 894 L 1175 894  A 3 3 0 0 1 1172 891 L 1172 867  Z " fill-rule="nonzero" fill="#909399" stroke="none" fill-opacity="0.0980392156862745" />
    <path d="M 1171.5 867  A 3.5 3.5 0 0 1 1175 863.5 L 1263 863.5  A 3.5 3.5 0 0 1 1266.5 867 L 1266.5 891  A 3.5 3.5 0 0 1 1263 894.5 L 1175 894.5  A 3.5 3.5 0 0 1 1171.5 891 L 1171.5 867  Z " stroke-width="1" stroke="#909399" fill="none" stroke-opacity="0.2" />
  </g>
</svg>