<?xml version="1.0" encoding="utf-8"?>
<svg version="1.1" xmlns:xlink="http://www.w3.org/1999/xlink" width="20px" height="17px" xmlns="http://www.w3.org/2000/svg">
  <g transform="matrix(1 0 0 1 -282 -18 )">
    <path d="M 11.8489583333333 15.210193452381  C 12.0052083333333 15.0963541666667  12.0833333333333 14.9340277777778  12.0833333333333 14.7232142857143  L 12.0833333333333 14.014880952381  L 12.0833333333333 8.09523809523809  L 12.0833333333333 5.66666666666667  L 7.91666666666667 5.66666666666667  L 7.91666666666667 8.09523809523809  L 7.91666666666667 14.014880952381  L 7.91666666666667 14.7232142857143  C 7.91666666666667 14.9340277777778  7.99479166666667 15.0963541666667  8.15104166666667 15.210193452381  C 8.30729166666667 15.3240327380952  8.50694444444444 15.3809523809524  8.75 15.3809523809524  L 11.25 15.3809523809524  C 11.4930555555556 15.3809523809524  11.6927083333333 15.3240327380952  11.8489583333333 15.210193452381  Z M 5.26041666666667 3.69345238095238  C 5.50347222222222 3.92956349206349  5.79861111111111 4.04761904761905  6.14583333333333 4.04761904761905  L 8.68489583333333 4.04761904761905  L 7.04427083333333 2.01116071428571  C 6.81857638888889 1.74975198412698  6.51909722222222 1.61904761904762  6.14583333333333 1.61904761904762  C 5.79861111111111 1.61904761904762  5.50347222222222 1.73710317460317  5.26041666666667 1.97321428571429  C 5.01736111111111 2.20932539682539  4.89583333333333 2.49603174603174  4.89583333333333 2.83333333333333  C 4.89583333333333 3.17063492063492  5.01736111111111 3.45734126984127  5.26041666666667 3.69345238095238  Z M 14.7395833333333 3.69345238095238  C 14.9826388888889 3.45734126984127  15.1041666666667 3.17063492063492  15.1041666666667 2.83333333333333  C 15.1041666666667 2.49603174603174  14.9826388888889 2.20932539682539  14.7395833333333 1.97321428571429  C 14.4965277777778 1.73710317460317  14.2013888888889 1.61904761904762  13.8541666666667 1.61904761904762  C 13.4809027777778 1.61904761904762  13.1814236111111 1.74975198412698  12.9557291666667 2.01116071428571  L 11.328125 4.04761904761905  L 13.8541666666667 4.04761904761905  C 14.2013888888889 4.04761904761905  14.4965277777778 3.92956349206349  14.7395833333333 3.69345238095238  Z M 19.8828125 5.78050595238095  C 19.9609375 5.85639880952381  20 5.95337301587302  20 6.07142857142857  L 20 10.1190476190476  C 20 10.2371031746032  19.9609375 10.3340773809524  19.8828125 10.4099702380952  C 19.8046875 10.4858630952381  19.7048611111111 10.5238095238095  19.5833333333333 10.5238095238095  L 18.3333333333333 10.5238095238095  L 18.3333333333333 15.7857142857143  C 18.3333333333333 16.1230158730159  18.2118055555556 16.4097222222222  17.96875 16.6458333333333  C 17.7256944444444 16.8819444444444  17.4305555555556 17  17.0833333333333 17  L 2.91666666666667 17  C 2.56944444444444 17  2.27430555555556 16.8819444444444  2.03125 16.6458333333333  C 1.78819444444444 16.4097222222222  1.66666666666667 16.1230158730159  1.66666666666667 15.7857142857143  L 1.66666666666667 10.5238095238095  L 0.416666666666667 10.5238095238095  C 0.295138888888889 10.5238095238095  0.1953125 10.4858630952381  0.1171875 10.4099702380952  C 0.0390625 10.3340773809524  0 10.2371031746032  0 10.1190476190476  L 0 6.07142857142857  C 0 5.95337301587302  0.0390625 5.85639880952381  0.1171875 5.78050595238095  C 0.1953125 5.70461309523809  0.295138888888889 5.66666666666667  0.416666666666667 5.66666666666667  L 6.14583333333333 5.66666666666667  C 5.33854166666667 5.66666666666667  4.65060763888889 5.39050099206349  4.08203125 4.83816964285714  C 3.51345486111111 4.28583829365079  3.22916666666667 3.61755952380952  3.22916666666667 2.83333333333333  C 3.22916666666667 2.04910714285714  3.51345486111111 1.38082837301587  4.08203125 0.828497023809524  C 4.65060763888889 0.276165674603174  5.33854166666667 0  6.14583333333333 0  C 7.07465277777778 0  7.80381944444445 0.324652777777776  8.33333333333333 0.973958333333333  L 10 3.06101190476191  L 11.6666666666667 0.973958333333333  C 12.1961805555556 0.324652777777776  12.9253472222222 0  13.8541666666667 0  C 14.6614583333333 0  15.3493923611111 0.276165674603174  15.91796875 0.828497023809524  C 16.4865451388889 1.38082837301587  16.7708333333333 2.04910714285714  16.7708333333333 2.83333333333333  C 16.7708333333333 3.61755952380952  16.4865451388889 4.28583829365079  15.91796875 4.83816964285714  C 15.3493923611111 5.39050099206349  14.6614583333333 5.66666666666667  13.8541666666667 5.66666666666667  L 19.5833333333333 5.66666666666667  C 19.7048611111111 5.66666666666667  19.8046875 5.70461309523809  19.8828125 5.78050595238095  Z " fill-rule="nonzero" fill="#bebebe" stroke="none" transform="matrix(1 0 0 1 282 18 )" />
  </g>
</svg>