<?xml version="1.0" encoding="utf-8"?>
<svg version="1.1" xmlns:xlink="http://www.w3.org/1999/xlink" width="19px" height="19px" xmlns="http://www.w3.org/2000/svg">
  <g transform="matrix(1 0 0 1 -367 -16 )">
    <path d="M 13.2745535714286 16.7151227678571  C 14.4408482142857 16.0966331845238  15.3986235119048 15.2572544642857  16.1478794642857 14.1969866071429  C 15.9923735119048 13.1013764880952  15.6831287202381 12.1913132440476  15.2201450892857 11.466796875  C 14.7571614583333 10.7422805059524  14.1050967261905 10.323474702381  13.2639508928571 10.2103794642857  C 12.7903645833333 10.7334449404762  12.2266555059524 11.1416480654762  11.5728236607143 11.4349888392857  C 10.9189918154762 11.7283296130952  10.2280505952381 11.875  9.5 11.875  C 8.77194940476191 11.875  8.08100818452381 11.7283296130952  7.42717633928571 11.4349888392857  C 6.77334449404762 11.1416480654762  6.20963541666667 10.7334449404762  5.73604910714286 10.2103794642857  C 4.89490327380952 10.323474702381  4.24283854166667 10.7422805059524  3.77985491071429 11.466796875  C 3.31687127976191 12.1913132440476  3.00762648809524 13.1013764880952  2.85212053571429 14.1969866071429  C 3.60137648809524 15.2572544642857  4.55915178571429 16.0966331845238  5.72544642857143 16.7151227678571  C 6.89174107142857 17.3336123511905  8.1499255952381 17.6428571428571  9.5 17.6428571428571  C 10.8500744047619 17.6428571428571  12.1082589285714 17.3336123511905  13.2745535714286 16.7151227678571  Z M 12.3786272321429 9.66434151785714  C 13.173828125 8.869140625  13.5714285714286 7.90959821428572  13.5714285714286 6.78571428571428  C 13.5714285714286 5.66183035714286  13.173828125 4.70228794642857  12.3786272321429 3.90708705357143  C 11.5834263392857 3.11188616071428  10.6238839285714 2.71428571428572  9.5 2.71428571428572  C 8.37611607142857 2.71428571428572  7.41657366071429 3.11188616071428  6.62137276785714 3.90708705357143  C 5.826171875 4.70228794642857  5.42857142857143 5.66183035714286  5.42857142857143 6.78571428571428  C 5.42857142857143 7.90959821428572  5.826171875 8.869140625  6.62137276785714 9.66434151785714  C 7.41657366071429 10.4595424107143  8.37611607142857 10.8571428571429  9.5 10.8571428571429  C 10.6238839285714 10.8571428571429  11.5834263392857 10.4595424107143  12.3786272321429 9.66434151785714  Z M 18.2472098214286 5.81026785714286  C 18.7490699404762 6.98363095238095  19 8.21354166666667  19 9.5  C 19 10.7864583333333  18.7490699404762 12.0146019345238  18.2472098214286 13.1844308035714  C 17.745349702381 14.354259672619  17.0720796130952 15.3650483630952  16.2273995535714 16.216796875  C 15.3827194940476 17.0685453869048  14.3736979166667 17.745349702381  13.2003348214286 18.2472098214286  C 12.0269717261905 18.7490699404762  10.7935267857143 19  9.5 19  C 8.21354166666667 19  6.98363095238095 18.7490699404762  5.81026785714286 18.2472098214286  C 4.63690476190476 17.745349702381  3.62611607142857 17.0703125  2.77790178571429 16.2220982142857  C 1.9296875 15.3738839285714  1.25465029761905 14.3630952380952  0.752790178571428 13.1897321428571  C 0.250930059523809 12.016369047619  0 10.7864583333333  0 9.5  C 0 8.21354166666667  0.250930059523809 6.98363095238095  0.752790178571428 5.81026785714286  C 1.25465029761905 4.63690476190476  1.9296875 3.62611607142857  2.77790178571429 2.77790178571428  C 3.62611607142857 1.9296875  4.63690476190476 1.25465029761905  5.81026785714286 0.752790178571428  C 6.98363095238095 0.250930059523809  8.21354166666667 0  9.5 0  C 10.7864583333333 0  12.016369047619 0.250930059523809  13.1897321428571 0.752790178571428  C 14.3630952380952 1.25465029761905  15.3738839285714 1.9296875  16.2220982142857 2.77790178571428  C 17.0703125 3.62611607142857  17.745349702381 4.63690476190476  18.2472098214286 5.81026785714286  Z " fill-rule="nonzero" fill="#bebebe" stroke="none" transform="matrix(1 0 0 1 367 16 )" />
  </g>
</svg>