<?xml version="1.0" encoding="utf-8"?>
<svg version="1.1" xmlns:xlink="http://www.w3.org/1999/xlink" width="23px" height="17px" xmlns="http://www.w3.org/2000/svg">
  <g transform="matrix(1 0 0 1 -25 -96 )">
    <path d="M 4.447265625 11.9108664772727  C 4.76813616071429 11.6090198863636  4.92857142857143 11.2447916666667  4.92857142857143 10.8181818181818  C 4.92857142857143 10.391571969697  4.76813616071429 10.02734375  4.447265625 9.72549715909091  C 4.12639508928571 9.42365056818182  3.73921130952381 9.27272727272727  3.28571428571429 9.27272727272727  C 2.83221726190476 9.27272727272727  2.44503348214286 9.42365056818182  2.12416294642857 9.72549715909091  C 1.80329241071429 10.02734375  1.64285714285714 10.391571969697  1.64285714285714 10.8181818181818  C 1.64285714285714 11.2447916666667  1.80329241071429 11.6090198863636  2.12416294642857 11.9108664772727  C 2.44503348214286 12.2127130681818  2.83221726190476 12.3636363636364  3.28571428571429 12.3636363636364  C 3.73921130952381 12.3636363636364  4.12639508928571 12.2127130681818  4.447265625 11.9108664772727  Z M 6.91155133928571 6.50177556818182  C 7.232421875 6.19992897727273  7.39285714285714 5.83570075757576  7.39285714285714 5.40909090909091  C 7.39285714285714 4.98248106060606  7.232421875 4.61825284090909  6.91155133928571 4.31640625  C 6.59068080357143 4.01455965909091  6.20349702380952 3.86363636363636  5.75 3.86363636363636  C 5.29650297619048 3.86363636363636  4.90931919642857 4.01455965909091  4.58844866071429 4.31640625  C 4.267578125 4.61825284090909  4.10714285714286 4.98248106060606  4.10714285714286 5.40909090909091  C 4.10714285714286 5.83570075757576  4.267578125 6.19992897727273  4.58844866071429 6.50177556818182  C 4.90931919642857 6.80362215909091  5.29650297619048 6.95454545454545  5.75 6.95454545454545  C 6.20349702380952 6.95454545454545  6.59068080357143 6.80362215909091  6.91155133928571 6.50177556818182  Z M 13.8102678571429 12.3153409090909  C 13.6220238095238 11.8565340909091  13.3139880952381 11.4902935606061  12.8861607142857 11.2166193181818  L 14.1824776785714 6.60440340909091  C 14.2338169642857 6.3951231060606  14.2017299107143 6.19992897727273  14.0862165178571 6.01882102272727  C 13.970703125 5.83771306818182  13.8059895833333 5.71898674242424  13.5920758928571 5.66264204545455  C 13.378162202381 5.60629734848485  13.1728050595238 5.63245738636364  12.9760044642857 5.74112215909091  C 12.7792038690476 5.84978693181818  12.6508556547619 6.00875946969697  12.5909598214286 6.21803977272727  L 11.2946428571429 10.8302556818182  C 10.78125 10.8705018939394  10.323474702381 11.0455729166667  9.92131696428572 11.35546875  C 9.51915922619048 11.6653645833333  9.24962797619048 12.0617897727273  9.11272321428572 12.5447443181818  C 8.94159226190476 13.1645359848485  9.02715773809524 13.7521306818182  9.36941964285714 14.3075284090909  C 9.71168154761905 14.8629261363636  10.2122395833333 15.2211174242424  10.87109375 15.3821022727273  C 11.5299479166667 15.5430871212121  12.1545758928571 15.4625946969697  12.7449776785714 15.140625  C 13.3353794642857 14.8186553030303  13.7161458333333 14.3477746212121  13.8872767857143 13.7279829545455  C 14.024181547619 13.2450284090909  13.9985119047619 12.7741477272727  13.8102678571429 12.3153409090909  Z M 20.8758370535714 11.9108664772727  C 21.1967075892857 11.6090198863636  21.3571428571429 11.2447916666667  21.3571428571429 10.8181818181818  C 21.3571428571429 10.391571969697  21.1967075892857 10.02734375  20.8758370535714 9.72549715909091  C 20.5549665178571 9.42365056818182  20.1677827380952 9.27272727272727  19.7142857142857 9.27272727272727  C 19.2607886904762 9.27272727272727  18.8736049107143 9.42365056818182  18.552734375 9.72549715909091  C 18.2318638392857 10.02734375  18.0714285714286 10.391571969697  18.0714285714286 10.8181818181818  C 18.0714285714286 11.2447916666667  18.2318638392857 11.6090198863636  18.552734375 11.9108664772727  C 18.8736049107143 12.2127130681818  19.2607886904762 12.3636363636364  19.7142857142857 12.3636363636364  C 20.1677827380952 12.3636363636364  20.5549665178571 12.2127130681818  20.8758370535714 11.9108664772727  Z M 12.6615513392857 4.18359375  C 12.982421875 3.88174715909091  13.1428571428571 3.51751893939394  13.1428571428571 3.09090909090909  C 13.1428571428571 2.66429924242424  12.982421875 2.30007102272727  12.6615513392857 1.99822443181818  C 12.3406808035714 1.69637784090909  11.9534970238095 1.54545454545455  11.5 1.54545454545455  C 11.0465029761905 1.54545454545455  10.6593191964286 1.69637784090909  10.3384486607143 1.99822443181818  C 10.017578125 2.30007102272727  9.85714285714286 2.66429924242424  9.85714285714286 3.09090909090909  C 9.85714285714286 3.51751893939394  10.017578125 3.88174715909091  10.3384486607143 4.18359375  C 10.6593191964286 4.48544034090909  11.0465029761905 4.63636363636364  11.5 4.63636363636364  C 11.9534970238095 4.63636363636364  12.3406808035714 4.48544034090909  12.6615513392857 4.18359375  Z M 18.4115513392857 6.50177556818182  C 18.732421875 6.19992897727273  18.8928571428571 5.83570075757576  18.8928571428571 5.40909090909091  C 18.8928571428571 4.98248106060606  18.732421875 4.61825284090909  18.4115513392857 4.31640625  C 18.0906808035714 4.01455965909091  17.7034970238095 3.86363636363636  17.25 3.86363636363636  C 16.7965029761905 3.86363636363636  16.4093191964286 4.01455965909091  16.0884486607143 4.31640625  C 15.767578125 4.61825284090909  15.6071428571429 4.98248106060606  15.6071428571429 5.40909090909091  C 15.6071428571429 5.83570075757576  15.767578125 6.19992897727273  16.0884486607143 6.50177556818182  C 16.4093191964286 6.80362215909091  16.7965029761905 6.95454545454545  17.25 6.95454545454545  C 17.7034970238095 6.95454545454545  18.0906808035714 6.80362215909091  18.4115513392857 6.50177556818182  Z M 22.0887276785714 6.61647727272727  C 22.6962425595238 7.95265151515151  23 9.3532196969697  23 10.8181818181818  C 23 12.9190340909091  22.3967633928571 14.8629261363636  21.1902901785714 16.6498579545455  C 21.0277157738095 16.8832859848485  20.7966889880952 17  20.4972098214286 17  L 2.50279017857143 17  C 2.20331101190476 17  1.97228422619048 16.8832859848485  1.80970982142857 16.6498579545455  C 0.603236607142857 14.8709753787879  0 12.9270833333333  0 10.8181818181818  C 0 9.3532196969697  0.30375744047619 7.95265151515151  0.911272321428571 6.61647727272727  C 1.51878720238095 5.28030303030303  2.3359375 4.12926136363636  3.36272321428571 3.16335227272727  C 4.38950892857143 2.19744318181818  5.61309523809524 1.42874053030303  7.03348214285714 0.857244318181818  C 8.45386904761905 0.285748106060605  9.94270833333333 0  11.5 0  C 13.0572916666667 0  14.546130952381 0.285748106060605  15.9665178571429 0.857244318181818  C 17.3869047619048 1.42874053030303  18.6104910714286 2.19744318181818  19.6372767857143 3.16335227272727  C 20.6640625 4.12926136363636  21.4812127976191 5.28030303030303  22.0887276785714 6.61647727272727  Z " fill-rule="nonzero" fill="#fbfbfb" stroke="none" transform="matrix(1 0 0 1 25 96 )" />
  </g>
</svg>