<?xml version="1.0" encoding="utf-8"?>
<svg version="1.1" xmlns:xlink="http://www.w3.org/1999/xlink" width="21px" height="17px" xmlns="http://www.w3.org/2000/svg">
  <g transform="matrix(1 0 0 1 -112 -18 )">
    <path d="M 9.21274038461539 9.73153409090909  C 9.53245192307692 10.0374053030303  9.69230769230769 10.3996212121212  9.69230769230769 10.8181818181818  L 9.69230769230769 15.4545454545455  C 9.69230769230769 15.8731060606061  9.53245192307692 16.235321969697  9.21274038461539 16.5411931818182  C 8.89302884615385 16.8470643939394  8.51442307692308 17  8.07692307692308 17  L 1.61538461538462 17  C 1.17788461538462 17  0.799278846153846 16.8470643939394  0.479567307692308 16.5411931818182  C 0.159855769230769 16.235321969697  0 15.8731060606061  0 15.4545454545455  L 0 10.8181818181818  C 0 10.3996212121212  0.159855769230769 10.0374053030303  0.479567307692308 9.73153409090909  C 0.799278846153846 9.42566287878788  1.17788461538462 9.27272727272727  1.61538461538462 9.27272727272727  L 8.07692307692308 9.27272727272727  C 8.51442307692308 9.27272727272727  8.89302884615385 9.42566287878788  9.21274038461539 9.73153409090909  Z M 9.21274038461539 0.458806818181818  C 9.53245192307692 0.764678030303029  9.69230769230769 1.12689393939394  9.69230769230769 1.54545454545455  L 9.69230769230769 6.18181818181818  C 9.69230769230769 6.60037878787879  9.53245192307692 6.9625946969697  9.21274038461539 7.26846590909091  C 8.89302884615385 7.57433712121212  8.51442307692308 7.72727272727273  8.07692307692308 7.72727272727273  L 1.61538461538462 7.72727272727273  C 1.17788461538462 7.72727272727273  0.799278846153846 7.57433712121212  0.479567307692308 7.26846590909091  C 0.159855769230769 6.9625946969697  0 6.60037878787879  0 6.18181818181818  L 0 1.54545454545455  C 0 1.12689393939394  0.159855769230769 0.764678030303029  0.479567307692308 0.458806818181818  C 0.799278846153846 0.152935606060605  1.17788461538462 0  1.61538461538462 0  L 8.07692307692308 0  C 8.51442307692308 0  8.89302884615385 0.152935606060605  9.21274038461539 0.458806818181818  Z M 20.5204326923077 9.73153409090909  C 20.8401442307692 10.0374053030303  21 10.3996212121212  21 10.8181818181818  L 21 15.4545454545455  C 21 15.8731060606061  20.8401442307692 16.235321969697  20.5204326923077 16.5411931818182  C 20.2007211538462 16.8470643939394  19.8221153846154 17  19.3846153846154 17  L 12.9230769230769 17  C 12.4855769230769 17  12.1069711538462 16.8470643939394  11.7872596153846 16.5411931818182  C 11.4675480769231 16.235321969697  11.3076923076923 15.8731060606061  11.3076923076923 15.4545454545455  L 11.3076923076923 10.8181818181818  C 11.3076923076923 10.3996212121212  11.4675480769231 10.0374053030303  11.7872596153846 9.73153409090909  C 12.1069711538462 9.42566287878788  12.4855769230769 9.27272727272727  12.9230769230769 9.27272727272727  L 19.3846153846154 9.27272727272727  C 19.8221153846154 9.27272727272727  20.2007211538462 9.42566287878788  20.5204326923077 9.73153409090909  Z M 20.5204326923077 0.458806818181818  C 20.8401442307692 0.764678030303029  21 1.12689393939394  21 1.54545454545455  L 21 6.18181818181818  C 21 6.60037878787879  20.8401442307692 6.9625946969697  20.5204326923077 7.26846590909091  C 20.2007211538462 7.57433712121212  19.8221153846154 7.72727272727273  19.3846153846154 7.72727272727273  L 12.9230769230769 7.72727272727273  C 12.4855769230769 7.72727272727273  12.1069711538462 7.57433712121212  11.7872596153846 7.26846590909091  C 11.4675480769231 6.9625946969697  11.3076923076923 6.60037878787879  11.3076923076923 6.18181818181818  L 11.3076923076923 1.54545454545455  C 11.3076923076923 1.12689393939394  11.4675480769231 0.764678030303029  11.7872596153846 0.458806818181818  C 12.1069711538462 0.152935606060605  12.4855769230769 0  12.9230769230769 0  L 19.3846153846154 0  C 19.8221153846154 0  20.2007211538462 0.152935606060605  20.5204326923077 0.458806818181818  Z " fill-rule="nonzero" fill="#bebebe" stroke="none" transform="matrix(1 0 0 1 112 18 )" />
  </g>
</svg>