<?xml version="1.0" encoding="utf-8"?>
<svg version="1.1" xmlns:xlink="http://www.w3.org/1999/xlink" width="8px" height="8px" xmlns="http://www.w3.org/2000/svg">
  <g transform="matrix(1 0 0 1 -1222 -174 )">
    <path d="M 1226 175  C 1227.68 175  1229 176.32  1229 178  C 1229 179.68  1227.68 181  1226 181  C 1224.32 181  1223 179.68  1223 178  C 1223 176.32  1224.32 175  1226 175  Z " fill-rule="nonzero" fill="#ffffff" stroke="none" />
    <path d="M 1226 175  C 1227.68 175  1229 176.32  1229 178  C 1229 179.68  1227.68 181  1226 181  C 1224.32 181  1223 179.68  1223 178  C 1223 176.32  1224.32 175  1226 175  Z " stroke-width="2" stroke="#2db7f5" fill="none" />
  </g>
</svg>