<?xml version="1.0" encoding="utf-8"?>
<svg version="1.1" xmlns:xlink="http://www.w3.org/1999/xlink" width="16px" height="6px" xmlns="http://www.w3.org/2000/svg">
  <g transform="matrix(1 0 0 1 -252 -931 )">
    <path d="M 15.7031250000001 0.197916666666657  C 15.9010416666666 0.329861111111114  16 0.486111111111114  16 0.666666666666657  C 16 0.847222222222229  15.9010416666666 1.00347222222223  15.7031250000001 1.13541666666666  L 8.703125 5.80208333333334  C 8.50520833333327 5.93402777777777  8.27083333333327 6  8 6  C 7.72916666666673 6  7.49479166666673 5.93402777777777  7.296875 5.80208333333334  L 0.296874999999934 1.13541666666666  C 0.0989583333333674 1.00347222222223  0 0.847222222222229  0 0.666666666666657  C 0 0.486111111111114  0.0989583333333674 0.329861111111114  0.296874999999934 0.197916666666657  C 0.494791666666669 0.0659722222222285  0.72916666666667 0  0.999999999999937 0  L 15.0000000000001 0  C 15.2708333333333 0  15.5052083333333 0.0659722222222285  15.7031250000001 0.197916666666657  Z " fill-rule="nonzero" fill="#cccccc" stroke="none" transform="matrix(1 0 0 1 252 931 )" />
  </g>
</svg>