<?xml version="1.0" encoding="utf-8"?>
<svg version="1.1" xmlns:xlink="http://www.w3.org/1999/xlink" width="20px" height="18px" xmlns="http://www.w3.org/2000/svg">
  <g transform="matrix(1 0 0 1 -34 -486 )">
    <path d="M 15.6666666666667 14.4  L 4.33333333333333 14.4  C 3.875 14.4  3.48263888888889 14.1796875  3.15625 13.7390625  C 2.82986111111111 13.2984375  2.66666666666667 12.76875  2.66666666666667 12.15  L 2.66666666666667 2.25  C 2.66666666666667 1.63125  2.82986111111111 1.1015625  3.15625 0.6609375  C 3.48263888888889 0.220312499999997  3.875 0  4.33333333333333 0  L 15.6666666666667 0  C 16.125 0  16.5173611111111 0.220312499999997  16.84375 0.6609375  C 17.1701388888889 1.1015625  17.3333333333333 1.63125  17.3333333333333 2.25  L 17.3333333333333 12.15  C 17.3333333333333 12.76875  17.1701388888889 13.2984375  16.84375 13.7390625  C 16.5173611111111 14.1796875  16.125 14.4  15.6666666666667 14.4  Z M 4.09895833333333 1.93359375  C 4.03298611111111 2.02265625  4 2.128125  4 2.25  L 4 12.15  C 4 12.271875  4.03298611111111 12.37734375  4.09895833333333 12.46640625  C 4.16493055555556 12.55546875  4.24305555555556 12.6  4.33333333333333 12.6  L 15.6666666666667 12.6  C 15.7569444444444 12.6  15.8350694444444 12.55546875  15.9010416666667 12.46640625  C 15.9670138888889 12.37734375  16 12.271875  16 12.15  L 16 2.25  C 16 2.128125  15.9670138888889 2.02265625  15.9010416666667 1.93359375  C 15.8350694444444 1.84453125  15.7569444444444 1.8  15.6666666666667 2  L 4.33333333333333 2  C 4.24305555555556 1.8  4.16493055555556 1.84453125  4.09895833333333 1.93359375  Z M 1.66666666666667 15  L 18.3333333333333 15  L 20 15.3  L 20 16.65  C 20 17.025  19.8368055555556 17.34375  19.5104166666667 17.60625  C 19.1840277777778 17.86875  18.7916666666667 18  18.3333333333333 18  L 1.66666666666667 18  C 1.20833333333333 18  0.815972222222222 17.86875  0.489583333333333 17.60625  C 0.163194444444444 17.34375  0 17.025  0 16.65  L 0 15.3  L 1.66666666666667 15  Z M 9.16666666666667 16.65  L 10.8333333333333 16.65  C 10.9444444444444 16.65  11 16.575  11 16.425  C 11 16.275  10.9444444444444 16.2  10.8333333333333 16.2  L 9.16666666666667 16.2  C 9.05555555555556 16.2  9 16.275  9 16.425  C 9 16.575  9.05555555555556 16.65  9.16666666666667 16.65  Z " fill-rule="nonzero" fill="#fbfbfb" stroke="none" transform="matrix(1 0 0 1 34 486 )" />
  </g>
</svg>