<?xml version="1.0" encoding="utf-8"?>
<svg version="1.1" xmlns:xlink="http://www.w3.org/1999/xlink" width="27px" height="27px" xmlns="http://www.w3.org/2000/svg">
  <g transform="matrix(1 0 0 1 -293 -18 )">
    <path d="M 5.16796875 13.0589488636364  C 5.25837053571429 13.1740056818182  5.30357142857143 13.3210227272727  5.30357142857143 13.5  C 5.30357142857143 13.6789772727273  5.25837053571429 13.8259943181818  5.16796875 13.9410511363636  L 0.828683035714286 19.4637784090909  C 0.73828125 19.5788352272727  0.622767857142857 19.6363636363636  0.482142857142857 19.6363636363636  C 0.3515625 19.6363636363636  0.238560267857143 19.5756392045455  0.143136160714286 19.4541903409091  C 0.0477120535714286 19.3327414772727  0 19.1889204545455  0 19.0227272727273  L 0 7.97727272727273  C 0 7.81107954545454  0.0477120535714286 7.66725852272727  0.143136160714286 7.54580965909091  C 0.238560267857143 7.42436079545454  0.3515625 7.36363636363636  0.482142857142857 7.36363636363636  C 0.622767857142857 7.36363636363636  0.73828125 7.42116477272727  0.828683035714286 7.53622159090909  L 5.16796875 13.0589488636364  Z M 26.8568638392857 22.2730823863636  C 26.9522879464286 22.39453125  27 22.5383522727273  27 22.7045454545455  L 27 26.3863636363636  C 27 26.5525568181818  26.9522879464286 26.6963778409091  26.8568638392857 26.8178267045455  C 26.7614397321429 26.9392755681818  26.6484375 27  26.5178571428571 27  L 0.482142857142857 27  C 0.3515625 27  0.238560267857143 26.9392755681818  0.143136160714286 26.8178267045455  C 0.0477120535714286 26.6963778409091  0 26.5525568181818  0 26.3863636363636  L 0 22.7045454545455  C 0 22.5383522727273  0.0477120535714286 22.39453125  0.143136160714286 22.2730823863636  C 0.238560267857143 22.1516335227273  0.3515625 22.0909090909091  0.482142857142857 22  L 26.5178571428571 22  C 26.6484375 22.0909090909091  26.7614397321429 22.1516335227273  26.8568638392857 22.2730823863636  Z M 26.8568638392857 14.9094460227273  C 26.9522879464286 15.0308948863636  27 15.1747159090909  27 15.3409090909091  L 27 19.0227272727273  C 27 19.1889204545455  26.9522879464286 19.3327414772727  26.8568638392857 19.4541903409091  C 26.7614397321429 19.5756392045455  26.6484375 19.6363636363636  26.5178571428571 19.6363636363636  L 10.125 19.6363636363636  C 9.99441964285714 19.6363636363636  9.88141741071429 19.5756392045455  9.78599330357143 19.4541903409091  C 9.69056919642857 19.3327414772727  9.64285714285714 19.1889204545455  9.64285714285714 19.0227272727273  L 9.64285714285714 15.3409090909091  C 9.64285714285714 15.1747159090909  9.69056919642857 15.0308948863636  9.78599330357143 14.9094460227273  C 9.88141741071429 14.7879971590909  9.99441964285714 14.7272727272727  10.125 14.7272727272727  L 26.5178571428571 14.7272727272727  C 26.6484375 14.7272727272727  26.7614397321429 14.7879971590909  26.8568638392857 14.9094460227273  Z M 26.8568638392857 7.54580965909091  C 26.9522879464286 7.66725852272727  27 7.81107954545454  27 7.97727272727273  L 27 11.6590909090909  C 27 11.8252840909091  26.9522879464286 11.9691051136364  26.8568638392857 12.0905539772727  C 26.7614397321429 12.2120028409091  26.6484375 12.2727272727273  26.5178571428571 12.2727272727273  L 10.125 12.2727272727273  C 9.99441964285714 12.2727272727273  9.88141741071429 12.2120028409091  9.78599330357143 12.0905539772727  C 9.69056919642857 11.9691051136364  9.64285714285714 11.8252840909091  9.64285714285714 11.6590909090909  L 9.64285714285714 7.97727272727273  C 9.64285714285714 7.81107954545454  9.69056919642857 7.66725852272727  9.78599330357143 7.54580965909091  C 9.88141741071429 7.42436079545454  9.99441964285714 7.36363636363636  10.125 7.36363636363636  L 26.5178571428571 7.36363636363636  C 26.6484375 7.36363636363636  26.7614397321429 7.42436079545454  26.8568638392857 7.54580965909091  Z M 26.8568638392857 0.182173295454545  C 26.9522879464286 0.303622159090909  27 0.44744318181818  27 0.613636363636363  L 27 4.29545454545455  C 27 4.46164772727272  26.9522879464286 4.60546875  26.8568638392857 4.72691761363636  C 26.7614397321429 4.84836647727273  26.6484375 4.90909090909091  26.5178571428571 5  L 0.482142857142857 5  C 0.3515625 4.90909090909091  0.238560267857143 4.84836647727273  0.143136160714286 4.72691761363636  C 0.0477120535714286 4.60546875  0 4.46164772727272  0 4.29545454545455  L 0 0.613636363636363  C 0 0.44744318181818  0.0477120535714286 0.303622159090909  0.143136160714286 0.182173295454545  C 0.238560267857143 0.0607244318181775  0.3515625 0  0.482142857142857 0  L 26.5178571428571 0  C 26.6484375 0  26.7614397321429 0.0607244318181775  26.8568638392857 0.182173295454545  Z " fill-rule="nonzero" fill="#304156" stroke="none" transform="matrix(1 0 0 1 293 18 )" />
  </g>
</svg>