<?xml version="1.0" encoding="utf-8"?>
<svg version="1.1" xmlns:xlink="http://www.w3.org/1999/xlink" width="98px" height="76px" xmlns="http://www.w3.org/2000/svg">
  <g transform="matrix(1 0 0 1 -158 -68 )">
    <path d="M 29.8083333333333 15.4375  C 31.7138888888889 17.2847222222222  32.6666666666667 19.5277777777778  32.6666666666667 22.1666666666667  C 32.6666666666667 24.8055555555556  31.7138888888889 27.0486111111111  29.8083333333333 28.8958333333333  C 27.9027777777778 30.7430555555556  25.5888888888889 31.6666666666667  22.8666666666667 31.6666666666667  C 20.1444444444444 31.6666666666667  17.8305555555556 30.7430555555556  15.925 28.8958333333333  C 14.0194444444444 27.0486111111111  13.0666666666667 24.8055555555556  13.0666666666667 22.1666666666667  C 13.0666666666667 19.5277777777778  14.0194444444444 17.2847222222222  15.925 15.4375  C 17.8305555555556 13.5902777777778  20.1444444444444 12.6666666666667  22.8666666666667 12.6666666666667  C 25.5888888888889 12.6666666666667  27.9027777777778 13.5902777777778  29.8083333333333 15.4375  Z M 63.7 20.5833333333333  L 85 41.1666666666667  L 85 63  L 13.0666666666667 63  L 13.0666666666667 53.8333333333333  L 29.4 38  L 37.5666666666667 45.9166666666667  L 63.7 20.5833333333333  Z M 90.9817708333333 6.80338541666666  C 90.6585069444445 6.4900173611111  90.2756944444445 6.33333333333334  89.8333333333333 7  L 8.16666666666667 7  C 7.72430555555556 6.33333333333334  7.34149305555556 6.4900173611111  7.01822916666667 6.80338541666666  C 6.69496527777778 7.11675347222222  6.53333333333333 7.48784722222222  7 7.91666666666666  L 7 68.0833333333333  C 6.53333333333333 68.5121527777778  6.69496527777778 68.8832465277778  7.01822916666667 69.1966145833333  C 7.34149305555556 69.5099826388889  7.72430555555556 69.6666666666667  8.16666666666667 69  L 89.8333333333333 69  C 90.2756944444445 69.6666666666667  90.6585069444445 69.5099826388889  90.9817708333333 69.1966145833333  C 91.3050347222222 68.8832465277778  91.4666666666667 68.5121527777778  91 68.0833333333333  L 91 7.91666666666666  C 91.4666666666667 7.48784722222222  91.3050347222222 7.11675347222222  90.9817708333333 6.80338541666666  Z M 95.6010416666667 2.32552083333334  C 97.2003472222222 3.87586805555555  98 5.73958333333334  98 7.91666666666666  L 98 68.0833333333333  C 98 70.2604166666667  97.2003472222222 72.1241319444444  95.6010416666667 73.6744791666667  C 94.0017361111111 75.2248263888889  92.0791666666667 76  89.8333333333333 76  L 8.16666666666667 76  C 5.92083333333333 76  3.99826388888889 75.2248263888889  2.39895833333333 73.6744791666667  C 0.799652777777778 72.1241319444444  0 70.2604166666667  0 68.0833333333333  L 0 7.91666666666666  C 0 5.73958333333334  0.799652777777778 3.87586805555555  2.39895833333333 2.32552083333334  C 3.99826388888889 0.775173611111104  5.92083333333333 0  8.16666666666667 0  L 89.8333333333333 0  C 92.0791666666667 0  94.0017361111111 0.775173611111104  95.6010416666667 2.32552083333334  Z " fill-rule="nonzero" fill="#666666" stroke="none" transform="matrix(1 0 0 1 158 68 )" />
  </g>
</svg>