<?xml version="1.0" encoding="utf-8"?>
<svg version="1.1" xmlns:xlink="http://www.w3.org/1999/xlink" width="25px" height="24px" xmlns="http://www.w3.org/2000/svg">
  <g transform="matrix(1 0 0 1 -1789 -20 )">
    <path d="M 13.6568509615385 13.796875  C 12.7854567307692 11.1614583333333  11.8639823717949 8.80729166666666  10.8924278846154 6.734375  L 8.33834134615385 13.765625  C 8.66887019230769 13.765625  9.35246394230769 13.7760416666667  10.3891225961538 13.796875  C 11.42578125 13.8177083333333  12.2295673076923 13.828125  12.8004807692308 13.828125  C 12.9907852564103 13.828125  13.2762419871795 13.8177083333333  13.6568509615385 13.796875  Z M 2.82451923076923 23.78125  C 2.02323717948718 23.9270833333333  1.08173076923077 24  0 24  L 0.0300480769230769 22.765625  C 0.260416666666667 22.6927083333333  0.540865384615385 22.6276041666667  0.871394230769231 22.5703125  C 1.20192307692308 22.5130208333333  1.48737980769231 22.4583333333333  1.72776442307692 22.40625  C 1.96814903846154 22.3541666666667  2.21604567307692 22.2786458333333  2.47145432692308 22.1796875  C 2.72686298076923 22.0807291666667  2.94971955128205 21.9296875  3.14002403846154 21.7265625  C 3.33032852564103 21.5234375  3.48557692307692 21.2604166666667  3.60576923076923 20.9375  L 7.16646634615385 11.3125  L 11.3731971153846 0  L 12.5 0  L 13.2962740384615 0  C 13.3764022435897 0.145833333333332  13.4314903846154 0.255208333333331  13.4615384615385 0.328125  L 16.5414663461538 7.828125  C 16.8719951923077 8.640625  17.4028445512821 9.98177083333333  18.1340144230769 11.8515625  C 18.8651842948718 13.7213541666667  19.4360977564103 15.1510416666667  19.8467548076923 16.140625  C 19.9969951923077 16.4947916666667  20.2874599358974 17.2473958333333  20.7181490384615 18.3984375  C 21.1488381410256 19.5494791666667  21.5094150641026 20.4270833333333  21.7998798076923 21.03125  C 22.0002003205128 21.5  22.1754807692308 21.796875  22.3257211538462 21.921875  C 22.5160256410256 22.078125  22.9567307692308 22.2317708333333  23.6478365384615 22.3828125  C 24.3389423076923 22.5338541666667  24.7596153846154 22.640625  24.9098557692308 22.703125  C 24.9699519230769 23.0989583333333  25 23.3958333333333  25 23.59375  C 25 23.6458333333333  24.9974959935897 23.7161458333333  24.9924879807692 23.8046875  C 24.9874799679487 23.8932291666667  24.9849759615385 23.9583333333333  24.9849759615385 24  C 24.3539663461538 24  23.4024439102564 23.9583333333333  22.1304086538462 23.875  C 20.8583733974359 23.7916666666667  19.9018429487179 23.75  19.2608173076923 23.75  C 18.4995993589744 23.75  17.4228766025641 23.7864583333333  16.0306490384615 23.859375  C 14.638421474359 23.9322916666667  13.7469951923077 23.9739583333333  13.3563701923077 23.984375  C 13.3563701923077 23.5364583333333  13.3764022435897 23.1302083333333  13.4164663461538 22.765625  L 15.3846153846154 22.328125  C 15.3946314102564 22.328125  15.4572315705128 22.3151041666667  15.5724158653846 22.2890625  C 15.6876001602564 22.2630208333333  15.7652243589744 22.2447916666667  15.8052884615385 22.234375  C 15.8453525641026 22.2239583333333  15.91796875 22.2005208333333  16.0231370192308 22.1640625  C 16.1283052884615 22.1276041666667  16.2034254807692 22.09375  16.2484975961538 22.0625  C 16.2935697115385 22.03125  16.3486578525641 21.9895833333333  16.4137620192308 21.9375  C 16.4788661858974 21.8854166666667  16.5239383012821 21.828125  16.5489783653846 21.765625  C 16.5740184294872 21.703125  16.5865384615385 21.6302083333333  16.5865384615385 21.546875  C 16.5865384615385 21.3802083333333  16.4312900641026 20.8776041666667  16.1207932692308 20.0390625  C 15.810296474359 19.2005208333333  15.4497195512821 18.2760416666667  15.0390625 17.265625  C 14.6284054487179 16.2552083333333  14.4180689102564 15.734375  14.4080528846154 15.703125  L 7.64723557692308 15.671875  C 7.38681891025641 16.2760416666667  7.00370592948718 17.2942708333333  6.49789663461538 18.7265625  C 5.99208733974359 20.1588541666667  5.73918269230769 21.0052083333333  5.73918269230769 21.265625  C 5.73918269230769 21.4947916666667  5.80929487179487 21.6901041666667  5.94951923076923 21.8515625  C 6.08974358974359 22.0130208333333  6.3075921474359 22.140625  6.60306490384615 22.234375  C 6.89853766025641 22.328125  7.14142628205128 22.3984375  7.33173076923077 22.4453125  C 7.52203525641026 22.4921875  7.80749198717949 22.5364583333333  8.18810096153846 22.578125  C 8.56870993589744 22.6197916666667  8.77403846153846 22.640625  8.80408653846154 22.640625  C 8.81410256410256 22.8385416666667  8.81911057692308 23.140625  8.81911057692308 23.546875  C 8.81911057692308 23.640625  8.80909455128205 23.78125  8.7890625 23.96875  C 8.20813301282051 23.96875  7.33423477564103 23.9166666666667  6.16736778846154 23.8125  C 5.00050080128205 23.7083333333333  4.12660256410256 23.65625  3.54567307692308 23.65625  C 3.46554487179487 23.65625  3.33283253205128 23.6770833333333  3.14753605769231 23.71875  C 2.96223958333333 23.7604166666667  2.85456730769231 23.78125  2.82451923076923 23.78125  Z " fill-rule="nonzero" fill="#000000" stroke="none" transform="matrix(1 0 0 1 1789 20 )" />
  </g>
</svg>