<?xml version="1.0" encoding="utf-8"?>
<svg version="1.1" xmlns:xlink="http://www.w3.org/1999/xlink" width="42px" height="34px" xmlns="http://www.w3.org/2000/svg">
  <g transform="matrix(1 0 0 1 -287 -530 )">
    <path d="M 12.775 6.90625  C 13.5916666666667 7.73263888888889  14 8.73611111111111  14 9.91666666666667  C 14 11.0972222222222  13.5916666666667 12.1006944444444  12.775 12.9270833333333  C 11.9583333333333 13.7534722222222  10.9666666666667 14.1666666666667  9.8 14.1666666666667  C 8.63333333333333 14.1666666666667  7.64166666666667 13.7534722222222  6.825 12.9270833333333  C 6.00833333333333 12.1006944444444  5.6 11.0972222222222  5.6 9.91666666666667  C 5.6 8.73611111111111  6.00833333333333 7.73263888888889  6.825 6.90625  C 7.64166666666667 6.07986111111111  8.63333333333333 5.66666666666667  9.8 5.66666666666667  C 10.9666666666667 5.66666666666667  11.9583333333333 6.07986111111111  12.775 6.90625  Z M 27.3 9.20833333333333  L 36.4 18.4166666666667  L 36.4 28  L 5.6 28  L 5.6 24.0833333333333  L 12.6 17  L 16.1 20.5416666666667  L 27.3 9.20833333333333  Z M 38.9921875 3.04361979166667  C 38.8536458333333 2.90342881944444  38.6895833333333 2.83333333333333  38.5 3  L 3.5 3  C 3.31041666666667 2.83333333333333  3.14635416666667 2.90342881944444  3.0078125 3.04361979166667  C 2.86927083333333 3.18381076388889  2.8 3.34982638888889  3 3.54166666666667  L 3 30.4583333333333  C 2.8 30.6501736111111  2.86927083333333 30.8161892361111  3.0078125 30.9563802083333  C 3.14635416666667 31.0965711805556  3.31041666666667 31.1666666666667  3.5 31  L 38.5 31  C 38.6895833333333 31.1666666666667  38.8536458333333 31.0965711805556  38.9921875 30.9563802083333  C 39.1307291666667 30.8161892361111  39.2 30.6501736111111  39 30.4583333333333  L 39 3.54166666666667  C 39.2 3.34982638888889  39.1307291666667 3.18381076388889  38.9921875 3.04361979166667  Z M 40.971875 1.04036458333333  C 41.6572916666667 1.73394097222222  42 2.56770833333333  42 3.54166666666667  L 42 30.4583333333333  C 42 31.4322916666667  41.6572916666667 32.2660590277778  40.971875 32.9596354166667  C 40.2864583333333 33.6532118055556  39.4625 34  38.5 34  L 3.5 34  C 2.5375 34  1.71354166666667 33.6532118055556  1.028125 32.9596354166667  C 0.342708333333333 32.2660590277778  0 31.4322916666667  0 30.4583333333333  L 0 3.54166666666667  C 0 2.56770833333333  0.342708333333333 1.73394097222222  1.028125 1.04036458333333  C 1.71354166666667 0.346788194444441  2.5375 0  3.5 0  L 38.5 0  C 39.4625 0  40.2864583333333 0.346788194444441  40.971875 1.04036458333333  Z " fill-rule="nonzero" fill="#666666" stroke="none" transform="matrix(1 0 0 1 287 530 )" />
  </g>
</svg>