<?xml version="1.0" encoding="utf-8"?>
<svg version="1.1" xmlns:xlink="http://www.w3.org/1999/xlink" width="20px" height="19px" xmlns="http://www.w3.org/2000/svg">
  <g transform="matrix(1 0 0 1 -46 -810 )">
    <path d="M 7.14285714285714 1.58333333333333  L 7.14285714285714 3.16666666666667  L 12.8571428571429 3.16666666666667  L 12.8571428571429 1.58333333333333  L 7.14285714285714 1.58333333333333  Z M 12.5 11.0833333333333  L 20 11.0833333333333  L 20 17.0208333333333  C 20 17.5651041666667  19.8251488095238 18.0310329861111  19.4754464285714 18.4186197916667  C 19.1257440476191 18.8062065972222  18.7053571428571 19  18.2142857142857 19  L 1.78571428571429 19  C 1.29464285714286 19  0.874255952380952 18.8062065972222  0.524553571428571 18.4186197916667  C 0.17485119047619 18.0310329861111  0 17.5651041666667  0 17.0208333333333  L 0 11.0833333333333  L 7.5 11.0833333333333  L 7.5 13.0625  C 7.5 13.2769097222222  7.57068452380952 13.4624565972222  7.71205357142857 13.619140625  C 7.85342261904762 13.7758246527778  8.02083333333333 13.8541666666667  8.21428571428571 13.8541666666667  L 11.7857142857143 13.8541666666667  C 11.9791666666667 13.8541666666667  12.1465773809524 13.7758246527778  12.2879464285714 13.619140625  C 12.4293154761905 13.4624565972222  12.5 13.2769097222222  12.5 13.0625  L 12.5 11.0833333333333  Z M 8.57142857142857 11.0833333333333  L 11.4285714285714 11.0833333333333  L 11.4285714285714 12.6666666666667  L 8.57142857142857 12.6666666666667  L 8.57142857142857 11.0833333333333  Z M 19.4754464285714 3.748046875  C 19.8251488095238 4.13563368055555  20 4.6015625  20 5.14583333333333  L 20 9.89583333333333  L 0 9.89583333333333  L 0 5.14583333333333  C 0 4.6015625  0.17485119047619 4.13563368055555  0.524553571428571 3.748046875  C 0.874255952380952 3.36046006944444  1.29464285714286 3.16666666666667  1.78571428571429 3.16666666666667  L 5.71428571428571 3.16666666666667  L 5.71428571428571 1.1875  C 5.71428571428571 0.857638888888888  5.81845238095238 0.577256944444442  6.02678571428571 0.346354166666666  C 6.23511904761905 0.11545138888889  6.48809523809524 0  6.78571428571429 0  L 13.2142857142857 0  C 13.5119047619048 0  13.764880952381 0.11545138888889  13.9732142857143 0.346354166666666  C 14.1815476190476 0.577256944444442  14.2857142857143 0.857638888888888  14.2857142857143 1.1875  L 14.2857142857143 3.16666666666667  L 18.2142857142857 3.16666666666667  C 18.7053571428571 3.16666666666667  19.1257440476191 3.36046006944444  19.4754464285714 3.748046875  Z " fill-rule="nonzero" fill="#409eff" stroke="none" transform="matrix(1 0 0 1 46 810 )" />
  </g>
</svg>