<?xml version="1.0" encoding="utf-8"?>
<svg version="1.1" xmlns:xlink="http://www.w3.org/1999/xlink" width="93px" height="32px" xmlns="http://www.w3.org/2000/svg">
  <g transform="matrix(1 0 0 1 -1158 -102 )">
    <path d="M 1159 106  A 3 3 0 0 1 1162 103 L 1247 103  A 3 3 0 0 1 1250 106 L 1250 130  A 3 3 0 0 1 1247 133 L 1162 133  A 3 3 0 0 1 1159 130 L 1159 106  Z " fill-rule="nonzero" fill="#909399" stroke="none" fill-opacity="0.0980392156862745" />
    <path d="M 1158.5 106  A 3.5 3.5 0 0 1 1162 102.5 L 1247 102.5  A 3.5 3.5 0 0 1 1250.5 106 L 1250.5 130  A 3.5 3.5 0 0 1 1247 133.5 L 1162 133.5  A 3.5 3.5 0 0 1 1158.5 130 L 1158.5 106  Z " stroke-width="1" stroke="#909399" fill="none" stroke-opacity="0.2" />
  </g>
</svg>