<?xml version="1.0" encoding="utf-8"?>
<svg version="1.1" xmlns:xlink="http://www.w3.org/1999/xlink" width="93px" height="32px" xmlns="http://www.w3.org/2000/svg">
  <g transform="matrix(1 0 0 1 -1157 -735 )">
    <path d="M 1158 739  A 3 3 0 0 1 1161 736 L 1246 736  A 3 3 0 0 1 1249 739 L 1249 763  A 3 3 0 0 1 1246 766 L 1161 766  A 3 3 0 0 1 1158 763 L 1158 739  Z " fill-rule="nonzero" fill="#f56c6c" stroke="none" fill-opacity="0.0980392156862745" />
    <path d="M 1157.5 739  A 3.5 3.5 0 0 1 1161 735.5 L 1246 735.5  A 3.5 3.5 0 0 1 1249.5 739 L 1249.5 763  A 3.5 3.5 0 0 1 1246 766.5 L 1161 766.5  A 3.5 3.5 0 0 1 1157.5 763 L 1157.5 739  Z " stroke-width="1" stroke="#f56c6c" fill="none" stroke-opacity="0.2" />
  </g>
</svg>