<?xml version="1.0" encoding="utf-8"?>
<svg version="1.1" xmlns:xlink="http://www.w3.org/1999/xlink" width="93px" height="32px" xmlns="http://www.w3.org/2000/svg">
  <g transform="matrix(1 0 0 1 -1157 -464 )">
    <path d="M 1158 468  A 3 3 0 0 1 1161 465 L 1246 465  A 3 3 0 0 1 1249 468 L 1249 492  A 3 3 0 0 1 1246 495 L 1161 495  A 3 3 0 0 1 1158 492 L 1158 468  Z " fill-rule="nonzero" fill="#e6a23c" stroke="none" fill-opacity="0.0980392156862745" />
    <path d="M 1157.5 468  A 3.5 3.5 0 0 1 1161 464.5 L 1246 464.5  A 3.5 3.5 0 0 1 1249.5 468 L 1249.5 492  A 3.5 3.5 0 0 1 1246 495.5 L 1161 495.5  A 3.5 3.5 0 0 1 1157.5 492 L 1157.5 468  Z " stroke-width="1" stroke="#e6a23c" fill="none" stroke-opacity="0.2" />
  </g>
</svg>