<?xml version="1.0" encoding="utf-8"?>
<svg version="1.1" xmlns:xlink="http://www.w3.org/1999/xlink" width="93px" height="32px" xmlns="http://www.w3.org/2000/svg">
  <g transform="matrix(1 0 0 1 -1157 -1045 )">
    <path d="M 1158 1049  A 3 3 0 0 1 1161 1046 L 1246 1046  A 3 3 0 0 1 1249 1049 L 1249 1073  A 3 3 0 0 1 1246 1076 L 1161 1076  A 3 3 0 0 1 1158 1073 L 1158 1049  Z " fill-rule="nonzero" fill="#67c23a" stroke="none" fill-opacity="0.0980392156862745" />
    <path d="M 1157.5 1049  A 3.5 3.5 0 0 1 1161 1045.5 L 1246 1045.5  A 3.5 3.5 0 0 1 1249.5 1049 L 1249.5 1073  A 3.5 3.5 0 0 1 1246 1076.5 L 1161 1076.5  A 3.5 3.5 0 0 1 1157.5 1073 L 1157.5 1049  Z " stroke-width="1" stroke="#67c23a" fill="none" stroke-opacity="0.2" />
  </g>
</svg>