<?xml version="1.0" encoding="utf-8"?>
<svg version="1.1" xmlns:xlink="http://www.w3.org/1999/xlink" width="8px" height="11px" xmlns="http://www.w3.org/2000/svg">
  <g transform="matrix(1 0 0 1 -1573 -25 )">
    <path d="M 8 5.5  C 8 5.61827956989247  7.95109395109395 5.72063688999173  7.85328185328185 5.80707196029777  L 2.12355212355212 10.8703473945409  C 2.02574002574003 10.956782464847  1.90990990990991 11  1.77606177606178 11  C 1.64221364221364 11  1.52638352638353 10.956782464847  1.42857142857143 10.8703473945409  L 0.146718146718147 9.73759305210918  C 0.048906048906049 9.65115798180314  0 9.54880066170389  0 9.43052109181141  C 0 9.31224152191894  0.048906048906049 9.20988420181969  0.146718146718147 9.12344913151365  L 4.24710424710425 5.5  L 0.146718146718147 1.87655086848635  C 0.048906048906049 1.79011579818031  0 1.68775847808106  0 1.56947890818859  C 0 1.45119933829611  0.048906048906049 1.34884201819686  0.146718146718147 1.26240694789082  L 1.42857142857143 0.129652605459057  C 1.52638352638353 0.0432175351530185  1.64221364221364 0  1.77606177606178 0  C 1.90990990990991 0  2.02574002574003 0.0432175351530185  2.12355212355212 0.129652605459057  L 7.85328185328185 5.19292803970223  C 7.95109395109395 5.27936311000827  8 5.38172043010753  8 5.5  Z " fill-rule="nonzero" fill="#6a7fa5" stroke="none" transform="matrix(1 0 0 1 1573 25 )" />
  </g>
</svg>